<svg width="24" height="24" viewBox="0 0 24 24" fill="none" xmlns="http://www.w3.org/2000/svg">
<g clip-path="url(#clip0_23_1391)">
<path d="M20.3873 2.16263C19.9007 1.67504 19.2537 1.40649 18.5652 1.40649H17.4023V1.17212C17.4023 0.525947 16.8766 0.000244141 16.2305 0.000244141H7.79297C7.1468 0.000244141 6.62109 0.525947 6.62109 1.17212V1.40649H5.45405C4.03556 1.40649 2.88024 2.56178 2.87864 3.98176L2.85938 21.4193C2.85863 22.1084 3.12614 22.7565 3.61266 23.2441C4.09922 23.7317 4.74633 24.0002 5.43478 24.0002H18.5459C19.9644 24.0002 21.1198 22.845 21.1213 21.425L21.1406 3.98748C21.1414 3.29828 20.8739 2.65018 20.3873 2.16263ZM8.02734 1.40649H15.9961V2.81274H8.02734V1.40649ZM19.7166 21.4234C19.7158 22.0689 19.1907 22.594 18.5459 22.594H5.43478C5.12185 22.594 4.8277 22.4719 4.60655 22.2503C4.38539 22.0286 4.2638 21.7341 4.26413 21.4209L4.28339 3.98335C4.2841 3.33784 4.80924 2.81274 5.45405 2.81274H6.62109V3.04712C6.62109 3.69329 7.1468 4.21899 7.79297 4.21899H16.2305C16.8766 4.21899 17.4023 3.69329 17.4023 3.04712V2.81274H18.5652C18.8782 2.81274 19.1723 2.93481 19.3935 3.15643C19.6146 3.37806 19.7362 3.67267 19.7359 3.98588L19.7166 21.4234Z" fill="#605C5C"/>
<path d="M12.239 9.37524H17.2345C17.6228 9.37524 17.9377 9.06043 17.9377 8.67212C17.9377 8.28381 17.6228 7.96899 17.2345 7.96899H12.239C11.8507 7.96899 11.5359 8.28381 11.5359 8.67212C11.5359 9.06043 11.8507 9.37524 12.239 9.37524Z" fill="#605C5C"/>
<path d="M12.239 14.0627H17.2345C17.6228 14.0627 17.9377 13.7479 17.9377 13.3596C17.9377 12.9713 17.6228 12.6565 17.2345 12.6565H12.239C11.8507 12.6565 11.5359 12.9713 11.5359 13.3596C11.5359 13.7479 11.8507 14.0627 12.239 14.0627Z" fill="#605C5C"/>
<path d="M17.2546 17.344H12.239C11.8507 17.344 11.5359 17.6588 11.5359 18.0471C11.5359 18.4354 11.8507 18.7502 12.239 18.7502H17.2546C17.643 18.7502 17.9578 18.4354 17.9578 18.0471C17.9578 17.6588 17.643 17.344 17.2546 17.344Z" fill="#605C5C"/>
<path d="M9.24635 6.75761L7.62485 8.37911L7.24254 7.99675C6.96795 7.72215 6.52278 7.72215 6.24818 7.99675C5.97359 8.27129 5.97359 8.71651 6.24818 8.99111L7.1277 9.87067C7.25956 10.0025 7.43838 10.0766 7.6249 10.0766C7.81137 10.0766 7.9902 10.0026 8.12206 9.87067L10.2408 7.75201C10.5154 7.47747 10.5154 7.03225 10.2408 6.75765C9.96617 6.48301 9.52099 6.48301 9.24635 6.75761Z" fill="#605C5C"/>
<path d="M7.97841 13.7781L7.62485 14.1317L7.2713 13.7781L6.88899 13.3958L6.88899 13.3958C6.80966 13.3165 6.68107 13.3165 6.60173 13.3958L6.6017 13.3959C6.52245 13.4751 6.52236 13.6037 6.60174 13.6831L7.97841 13.7781ZM7.97841 13.7781L9.59988 12.1567C9.59989 12.1567 9.5999 12.1567 9.59991 12.1566C9.67924 12.0774 9.80788 12.0774 9.88721 12.1567L10.2408 11.8031L9.88721 12.1567C9.96655 12.236 9.96651 12.3646 9.88724 12.4439L9.88721 12.4439L7.7685 14.5626L7.76838 14.5628C7.73043 14.6007 7.67882 14.6222 7.6249 14.6222C7.57105 14.6222 7.51939 14.6008 7.48126 14.5627C7.48126 14.5626 7.48125 14.5626 7.48125 14.5626L6.60177 13.6831L7.97841 13.7781Z" fill="#605C5C" stroke="#605C5C"/>
<path d="M9.24635 16.4906L7.62485 18.1121L7.24254 17.7298C6.96795 17.4552 6.52278 17.4552 6.24818 17.7298C5.97359 18.0043 5.97359 18.4495 6.24818 18.7241L7.1277 19.6037C7.25956 19.7356 7.43838 19.8097 7.6249 19.8097C7.81137 19.8097 7.99024 19.7356 8.12206 19.6037L10.2408 17.485C10.5154 17.2104 10.5154 16.7652 10.2408 16.4906C9.96617 16.216 9.52095 16.216 9.24635 16.4906Z" fill="#605C5C"/>
</g>
<defs>
<clipPath id="clip0_23_1391">
<rect width="24" height="24" fill="white" transform="translate(0 0.000244141)"/>
</clipPath>
</defs>
</svg>
