<svg width="22" height="22" viewBox="0 0 22 22" fill="none" xmlns="http://www.w3.org/2000/svg">
<path d="M17.75 1.96997H16.625V1.25C16.625 0.835815 16.2892 0.5 15.875 0.5C15.4608 0.5 15.125 0.835815 15.125 1.25V1.96997H6.875V1.25C6.875 0.835815 6.53918 0.5 6.125 0.5C5.71082 0.5 5.375 0.835815 5.375 1.25V1.96997H4.25C2.18237 1.96997 0.5 3.65234 0.5 5.71997V17.75C0.5 19.8176 2.18237 21.5 4.25 21.5H17.75C19.8176 21.5 21.5 19.8176 21.5 17.75V5.71997C21.5 3.65234 19.8176 1.96997 17.75 1.96997ZM2 5.71997C2 4.47925 3.00928 3.46997 4.25 3.46997H5.375V4.18958C5.375 4.60376 5.71082 4.93958 6.125 4.93958C6.53918 4.93958 6.875 4.60376 6.875 4.18958V3.46997H15.125V4.18958C15.125 4.60376 15.4608 4.93958 15.875 4.93958C16.2892 4.93958 16.625 4.60376 16.625 4.18958V3.46997H17.75C18.9907 3.46997 20 4.47925 20 5.71997V6.47729H2V5.71997ZM17.75 20H4.25C3.00928 20 2 18.9907 2 17.75V7.97729H20V17.75C20 18.9907 18.9907 20 17.75 20Z" fill="#605959"/>
</svg>
