<svg width="50" height="40" viewBox="0 0 50 40" fill="none" xmlns="http://www.w3.org/2000/svg">
<path d="M16.4204 13.4314H7.22782C6.4295 13.4314 5.78229 14.0196 5.78229 14.7451C5.78229 15.4706 6.4295 16.0588 7.22782 16.0588H16.4204C17.2187 16.0588 17.8659 15.4706 17.8659 14.7451C17.8659 14.0196 17.2187 13.4314 16.4204 13.4314Z" fill="#8F8F8F"/>
<path d="M16.4204 8.17628H7.22782C6.4295 8.17628 5.78229 8.76447 5.78229 9.48999C5.78229 10.2155 6.4295 10.8037 7.22782 10.8037H16.4204C17.2187 10.8037 17.8659 10.2155 17.8659 9.48999C17.8659 8.76447 17.2187 8.17628 16.4204 8.17628Z" fill="#8F8F8F"/>
<path d="M16.4204 18.6859H7.22782C6.4295 18.6859 5.78229 19.2741 5.78229 19.9996C5.78229 20.7252 6.4295 21.3133 7.22782 21.3133H16.4204C17.2187 21.3133 17.8659 20.7252 17.8659 19.9996C17.8659 19.2741 17.2187 18.6859 16.4204 18.6859Z" fill="#8F8F8F"/>
<path d="M16.4204 23.9408H7.22782C6.4295 23.9408 5.78229 24.5289 5.78229 25.2545C5.78229 25.98 6.4295 26.5682 7.22782 26.5682H16.4204C17.2187 26.5682 17.8659 25.98 17.8659 25.2545C17.8659 24.5289 17.2187 23.9408 16.4204 23.9408Z" fill="#8F8F8F"/>
<path d="M16.4204 29.1956H7.22782C6.4295 29.1956 5.78229 29.7838 5.78229 30.5093C5.78229 31.2348 6.4295 31.823 7.22782 31.823H16.4204C17.2187 31.823 17.8659 31.2348 17.8659 30.5093C17.8659 29.7838 17.2187 29.1956 16.4204 29.1956Z" fill="#8F8F8F"/>
<path d="M39.778 15.3818C38.8526 14.6149 37.3577 15.2123 37.3583 16.3531L37.3597 19.1288H33.862V9.71995C33.862 9.38461 33.7145 9.04129 33.4386 8.79072L24.188 0.384694C23.9129 0.13474 23.5286 -0.00749016 23.1329 0.000304477H1.44553C0.647211 0.000304477 0 0.588493 0 1.31401V38.6863C0 39.4118 0.647211 40 1.44553 40H32.4165C33.2148 40 33.862 39.4118 33.862 38.6863V28.7626H37.3602V31.5389C37.3602 32.6857 38.8596 33.2718 39.7797 32.5096L48.9405 24.9181C49.569 24.3972 49.5687 23.4974 48.9406 22.9767L39.778 15.3818ZM24.6116 4.48493L28.9266 8.40599H24.6116V4.48493ZM30.9709 37.3725H2.89106V2.62762H21.7205V9.71969C21.7205 10.4452 22.3677 11.0334 23.166 11.0334H30.9709V19.1289H25.2196C24.4213 19.1289 23.7741 19.7171 23.7741 20.4426V27.449C23.7741 28.1745 24.4213 28.7627 25.2196 28.7627H30.9709V37.3725ZM40.2512 28.5632V27.4489C40.2512 26.7234 39.604 26.1352 38.8057 26.1352C38.4931 26.1352 26.9773 26.1352 26.6652 26.1352V21.7562H38.8057C39.6039 21.7562 40.2515 21.1676 40.2512 20.4419L40.2507 19.3299L45.8213 23.9473L40.2512 28.5632Z" fill="#8F8F8F"/>
</svg>
