<svg width="24" height="24" viewBox="0 0 24 24" fill="none" xmlns="http://www.w3.org/2000/svg">
<g clip-path="url(#clip0_23_1401)">
<path d="M20.25 21.0002H6C5.70163 21.0002 5.41548 20.8817 5.2045 20.6707C4.99353 20.4598 4.875 20.1736 4.875 19.8752V1.87524C4.875 1.57688 4.99353 1.29073 5.2045 1.07975C5.41548 0.868771 5.70163 0.750244 6 0.750244H18.375V1.50024H6C5.90054 1.50024 5.80516 1.53975 5.73484 1.61008C5.66451 1.68041 5.625 1.77579 5.625 1.87524V19.8752C5.625 19.9747 5.66451 20.0701 5.73484 20.1404C5.80516 20.2107 5.90054 20.2502 6 20.2502H20.25C20.3495 20.2502 20.4448 20.2107 20.5152 20.1404C20.5855 20.0701 20.625 19.9747 20.625 19.8752V3.75024H21.375V19.8752C21.375 20.1736 21.2565 20.4598 21.0455 20.6707C20.8345 20.8817 20.5484 21.0002 20.25 21.0002Z" fill="#605C5C"/>
<path d="M18 23.2502H3.75C3.45163 23.2502 3.16548 23.1317 2.9545 22.9207C2.74353 22.7098 2.625 22.4236 2.625 22.1252V4.12524C2.625 3.82688 2.74353 3.54073 2.9545 3.32975C3.16548 3.11877 3.45163 3.00024 3.75 3.00024H4.125C4.22446 3.00024 4.31984 3.03975 4.39016 3.11008C4.46049 3.18041 4.5 3.27579 4.5 3.37524C4.5 3.4747 4.46049 3.57008 4.39016 3.64041C4.31984 3.71074 4.22446 3.75024 4.125 3.75024H3.75C3.65054 3.75024 3.55516 3.78975 3.48484 3.86008C3.41451 3.93041 3.375 4.02579 3.375 4.12524V22.1252C3.375 22.2247 3.41451 22.3201 3.48484 22.3904C3.55516 22.4607 3.65054 22.5002 3.75 22.5002H18C18.0995 22.5002 18.1948 22.4607 18.2652 22.3904C18.3355 22.3201 18.375 22.2247 18.375 22.1252V21.7502C18.375 21.6508 18.4145 21.5554 18.4848 21.4851C18.5552 21.4148 18.6505 21.3752 18.75 21.3752C18.8495 21.3752 18.9448 21.4148 19.0152 21.4851C19.0855 21.5554 19.125 21.6508 19.125 21.7502V22.1252C19.125 22.4236 19.0065 22.7098 18.7955 22.9207C18.5845 23.1317 18.2984 23.2502 18 23.2502Z" fill="#605C5C"/>
<path d="M16.875 12.3752H9.375C9.27554 12.3752 9.18016 12.3357 9.10983 12.2654C9.03951 12.1951 9 12.0997 9 12.0002C9 11.9008 9.03951 11.8054 9.10983 11.7351C9.18016 11.6648 9.27554 11.6252 9.375 11.6252H16.875C16.9745 11.6252 17.0698 11.6648 17.1402 11.7351C17.2105 11.8054 17.25 11.9008 17.25 12.0002C17.25 12.0997 17.2105 12.1951 17.1402 12.2654C17.0698 12.3357 16.9745 12.3752 16.875 12.3752Z" fill="#605C5C"/>
<path d="M18.375 15.0002H7.875C7.77554 15.0002 7.68016 14.9607 7.60983 14.8904C7.53951 14.8201 7.5 14.7247 7.5 14.6252C7.5 14.5258 7.53951 14.4304 7.60983 14.3601C7.68016 14.2898 7.77554 14.2502 7.875 14.2502H18.375C18.4745 14.2502 18.5698 14.2898 18.6402 14.3601C18.7105 14.4304 18.75 14.5258 18.75 14.6252C18.75 14.7247 18.7105 14.8201 18.6402 14.8904C18.5698 14.9607 18.4745 15.0002 18.375 15.0002Z" fill="#605C5C"/>
<path d="M18.375 17.6252H7.875C7.77554 17.6252 7.68016 17.5857 7.60983 17.5154C7.53951 17.4451 7.5 17.3497 7.5 17.2502C7.5 17.1508 7.53951 17.0554 7.60983 16.9851C7.68016 16.9148 7.77554 16.8752 7.875 16.8752H18.375C18.4745 16.8752 18.5698 16.9148 18.6402 16.9851C18.7105 17.0554 18.75 17.1508 18.75 17.2502C18.75 17.3497 18.7105 17.4451 18.6402 17.5154C18.5698 17.5857 18.4745 17.6252 18.375 17.6252Z" fill="#605C5C"/>
<path d="M13.125 7.87524C13.0508 7.87523 12.9783 7.85323 12.9167 7.81202C12.855 7.77081 12.807 7.71225 12.7786 7.64374C12.7502 7.57523 12.7428 7.49984 12.7573 7.42711C12.7717 7.35437 12.8074 7.28756 12.8599 7.23512L16.6099 3.48512C16.6806 3.41681 16.7753 3.37901 16.8736 3.37987C16.972 3.38072 17.066 3.42016 17.1355 3.48969C17.2051 3.55922 17.2445 3.65327 17.2454 3.75159C17.2462 3.84992 17.2084 3.94464 17.1401 4.01537L13.3901 7.76537C13.3198 7.8357 13.2244 7.87522 13.125 7.87524Z" fill="#605C5C"/>
<path d="M16.875 6.00024C16.7755 6.00024 16.6802 5.96074 16.6098 5.89041C16.5395 5.82008 16.5 5.7247 16.5 5.62524V3.75024C16.5 3.65079 16.5395 3.55541 16.6098 3.48508C16.6802 3.41475 16.7755 3.37524 16.875 3.37524C16.9745 3.37524 17.0698 3.41475 17.1402 3.48508C17.2105 3.55541 17.25 3.65079 17.25 3.75024V5.62524C17.25 5.7247 17.2105 5.82008 17.1402 5.89041C17.0698 5.96074 16.9745 6.00024 16.875 6.00024Z" fill="#605C5C"/>
<path d="M16.875 4.12524H15C14.9005 4.12524 14.8052 4.08574 14.7348 4.01541C14.6645 3.94508 14.625 3.8497 14.625 3.75024C14.625 3.65079 14.6645 3.55541 14.7348 3.48508C14.8052 3.41475 14.9005 3.37524 15 3.37524H16.875C16.9745 3.37524 17.0698 3.41475 17.1402 3.48508C17.2105 3.55541 17.25 3.65079 17.25 3.75024C17.25 3.8497 17.2105 3.94508 17.1402 4.01541C17.0698 4.08574 16.9745 4.12524 16.875 4.12524Z" fill="#605C5C"/>
<path d="M13.125 7.87524C13.0256 7.87522 12.9302 7.8357 12.8599 7.76537L11.3599 6.26537C11.2916 6.19464 11.2538 6.09992 11.2547 6.00159C11.2555 5.90327 11.2949 5.80922 11.3645 5.73969C11.434 5.67016 11.5281 5.63072 11.6264 5.62987C11.7247 5.62901 11.8194 5.66681 11.8902 5.73512L13.3902 7.23512C13.4426 7.28756 13.4783 7.35437 13.4927 7.42711C13.5072 7.49984 13.4998 7.57523 13.4714 7.64374C13.443 7.71225 13.395 7.77081 13.3333 7.81202C13.2717 7.85323 13.1992 7.87523 13.125 7.87524Z" fill="#605C5C"/>
<path d="M9.37498 8.62524C9.30082 8.62523 9.22834 8.60323 9.16668 8.56202C9.10503 8.52081 9.05698 8.46225 9.0286 8.39374C9.00023 8.32523 8.9928 8.24984 9.00726 8.17711C9.02173 8.10437 9.05743 8.03756 9.10986 7.98512L11.3599 5.73512C11.4306 5.66681 11.5253 5.62901 11.6236 5.62987C11.722 5.63072 11.816 5.67016 11.8855 5.73969C11.9551 5.80922 11.9945 5.90327 11.9954 6.00159C11.9962 6.09992 11.9584 6.19464 11.8901 6.26537L9.64011 8.51537C9.5698 8.5857 9.47443 8.62522 9.37498 8.62524Z" fill="#605C5C"/>
<path d="M21 4.12524H18.375C18.2755 4.12524 18.1802 4.08574 18.1098 4.01541C18.0395 3.94508 18 3.8497 18 3.75024V1.12524C18 1.02579 18.0395 0.930405 18.1098 0.860079C18.1802 0.789753 18.2755 0.750244 18.375 0.750244C18.4745 0.750244 18.5698 0.789753 18.6402 0.860079C18.7105 0.930405 18.75 1.02579 18.75 1.12524V3.37524H21C21.0995 3.37524 21.1948 3.41475 21.2652 3.48508C21.3355 3.55541 21.375 3.65079 21.375 3.75024C21.375 3.8497 21.3355 3.94508 21.2652 4.01541C21.1948 4.08574 21.0995 4.12524 21 4.12524Z" fill="#605C5C"/>
<path d="M21 4.12524C20.9006 4.12522 20.8052 4.0857 20.7349 4.01537L18.1099 1.39037C18.0416 1.31964 18.0038 1.22492 18.0047 1.12659C18.0055 1.02827 18.0449 0.934215 18.1145 0.864687C18.184 0.795159 18.2781 0.755721 18.3764 0.754866C18.4747 0.754012 18.5694 0.79181 18.6402 0.860119L21.2652 3.48512C21.3176 3.53756 21.3533 3.60438 21.3677 3.67711C21.3822 3.74984 21.3748 3.82523 21.3464 3.89374C21.318 3.96225 21.27 4.02081 21.2083 4.06202C21.1467 4.10323 21.0742 4.12523 21 4.12524Z" fill="#605C5C"/>
</g>
<defs>
<clipPath id="clip0_23_1401">
<rect width="24" height="24" fill="white" transform="translate(0 0.000244141)"/>
</clipPath>
</defs>
</svg>
