<svg width="24" height="24" viewBox="0 0 24 24" fill="none" xmlns="http://www.w3.org/2000/svg">
<mask id="path-1-inside-1_23_1416" fill="white">
<path d="M23.0101 7.2691L21.8036 6.80471C21.6321 6.16023 21.3763 5.54303 21.041 4.9652L21.5661 3.78287C21.6291 3.64112 21.5983 3.47523 21.4886 3.36549L19.8852 1.76213C19.7755 1.65245 19.6096 1.6217 19.4678 1.6846L18.285 2.20984C17.7072 1.87468 17.0903 1.61888 16.4461 1.44742L15.9815 0.240525C15.9259 0.0957754 15.7867 0.000244141 15.6316 0.000244141H13.3641C13.209 0.000244141 13.0699 0.0957754 13.0141 0.240525L12.5495 1.44742C11.9053 1.61884 11.2884 1.87463 10.7106 2.20984L9.52785 1.68456C9.3861 1.62156 9.22016 1.6524 9.11047 1.76209L7.50707 3.36549C7.39738 3.47523 7.36653 3.64112 7.42949 3.78287L7.95472 4.96548C7.61947 5.54335 7.36367 6.16027 7.19225 6.80452L5.98546 7.26906C5.84071 7.32474 5.74517 7.46387 5.74517 7.61903V9.88656C5.74517 10.0417 5.84071 10.1808 5.98546 10.2365L7.19202 10.7009C7.36353 11.3455 7.61938 11.9627 7.95458 12.5404L7.42949 13.7228C7.40811 13.7708 7.39841 13.8216 7.39803 13.8721L6.04911 15.1833C5.87816 15.0729 5.6795 15.0113 5.47025 15.0083C5.17696 15.0041 4.89955 15.1141 4.69002 15.3178L0.331816 19.5541C-0.101871 19.9758 -0.111715 20.6717 0.309832 21.1054L1.886 22.727C2.10074 22.9479 2.38658 23.0588 2.6728 23.0588C2.94847 23.0588 3.22457 22.9558 3.43743 22.7489L7.79553 18.5127C8.00511 18.3091 8.12282 18.0352 8.12699 17.7416C8.12994 17.5323 8.07467 17.3315 7.96902 17.1574L9.31606 15.848C9.38628 15.8593 9.45978 15.8513 9.5278 15.8211L10.7106 15.2958C11.2885 15.631 11.9055 15.8868 12.5495 16.0582L13.0141 17.2652C13.0698 17.4099 13.2089 17.5054 13.364 17.5054H15.6316C15.7867 17.5054 15.9258 17.4099 15.9815 17.2652L16.446 16.0586C17.0905 15.8871 17.7077 15.6313 18.2855 15.296L19.4678 15.8211C19.6096 15.8842 19.7755 15.8533 19.8852 15.7436L21.4886 14.1402C21.5983 14.0304 21.6291 13.8646 21.5661 13.7228L21.0408 12.5401C21.376 11.9622 21.6318 11.3453 21.8032 10.7012L23.0101 10.2366C23.1549 10.1809 23.2504 10.0418 23.2504 9.88665V7.61912C23.2504 7.46392 23.1549 7.32479 23.0101 7.2691ZM6.59267 15.7011L7.84789 14.481L8.73449 15.3676L7.46652 16.6001L6.59267 15.7011ZM7.27288 17.9749L2.91477 22.2111C2.77743 22.3444 2.5573 22.3414 2.42389 22.2042L0.847769 20.5826C0.71441 20.4454 0.71755 20.2253 0.854753 20.0919L5.21296 15.8555C5.27886 15.7915 5.36638 15.7591 5.45975 15.7583C5.55303 15.7596 5.63966 15.7966 5.70369 15.8625L7.27991 17.4842C7.34394 17.55 7.37849 17.6377 7.37717 17.731C7.37581 17.8242 7.33878 17.9108 7.27288 17.9749ZM22.5004 9.62912L21.3524 10.0711C21.237 10.1154 21.1509 10.2139 21.1223 10.3342C20.9555 11.0351 20.6788 11.7025 20.2999 12.318C20.235 12.4232 20.2263 12.5537 20.2765 12.6668L20.7762 13.7919L19.5369 15.0312L18.4122 14.5317C18.2991 14.4814 18.1686 14.4902 18.0634 14.5551C17.4481 14.934 16.7805 15.2108 16.0791 15.3777C15.9588 15.4063 15.8603 15.4924 15.8159 15.6078L15.3741 16.7554H13.6216L13.1797 15.6074C13.1353 15.492 13.0368 15.4059 12.9165 15.3774C12.2157 15.2105 11.5483 14.9339 10.9327 14.5549C10.8274 14.49 10.6969 14.4812 10.5839 14.5315L9.4588 15.0312L8.21952 13.7919L8.71902 12.6672C8.76922 12.5542 8.76046 12.4237 8.69558 12.3184C8.31674 11.7032 8.03999 11.0357 7.87302 10.334C7.84438 10.2138 7.75832 10.1153 7.64291 10.0709L6.49527 9.62917V7.8766L7.64314 7.43471C7.7585 7.39032 7.84461 7.29184 7.87325 7.17156C8.04008 6.47049 8.31678 5.80304 8.69572 5.18762C8.76055 5.08234 8.76932 4.95184 8.71916 4.83882L8.21952 3.71382L9.4588 2.47454L10.5839 2.97423C10.6969 3.02443 10.8274 3.01571 10.9327 2.95084C11.548 2.57195 12.2155 2.29524 12.9165 2.12832C13.0368 2.09973 13.1353 2.01367 13.1796 1.89826L13.6216 0.750291H15.3741L15.816 1.89826C15.8604 2.01362 15.9589 2.09973 16.0791 2.12832C16.7802 2.29524 17.4477 2.57195 18.0629 2.95084C18.1683 3.01567 18.2988 3.02438 18.4118 2.97423L19.5369 2.47454L20.7762 3.71378L20.2766 4.83849C20.2264 4.95151 20.2352 5.08201 20.3 5.18734C20.679 5.80262 20.9557 6.47021 21.1226 7.17165C21.1513 7.29193 21.2373 7.39042 21.3527 7.43481L22.5004 7.87656L22.5004 9.62912ZM14.4979 3.28117C11.4808 3.28117 9.02619 5.73573 9.02619 8.75284C9.02619 11.7699 11.4808 14.2245 14.4979 14.2245C17.5149 14.2245 19.9695 11.7699 19.9695 8.75284C19.9695 5.73573 17.5149 3.28117 14.4979 3.28117ZM14.4979 13.4745C11.8943 13.4745 9.77619 11.3564 9.77619 8.75284C9.77619 6.14931 11.8943 4.03117 14.4979 4.03117C17.1014 4.03117 19.2195 6.14935 19.2195 8.75284C19.2195 11.3563 17.1013 13.4745 14.4979 13.4745ZM15.7631 8.80234C16.1266 8.4632 16.3546 7.98043 16.3546 7.44521C16.3546 6.42142 15.5217 5.58849 14.4979 5.58849C13.4741 5.58849 12.6411 6.42146 12.6411 7.44521C12.6411 7.98043 12.8691 8.46315 13.2326 8.80234C12.1443 9.25149 11.3437 10.2646 11.2113 11.5023C11.1999 11.6081 11.2341 11.7137 11.3052 11.7929C11.3763 11.872 11.4777 11.9172 11.5841 11.9172L17.4115 11.9171C17.5179 11.9171 17.6193 11.8719 17.6904 11.7928C17.7615 11.7137 17.7957 11.608 17.7844 11.5022C17.6519 10.2645 16.8514 9.25149 15.7631 8.80234ZM13.3911 7.44521C13.3911 6.83495 13.8876 6.33849 14.4979 6.33849C15.1081 6.33849 15.6046 6.83499 15.6046 7.44521C15.6046 8.05515 15.1086 8.55142 14.4988 8.55193C14.4985 8.55193 14.4982 8.55193 14.4979 8.55193C14.4975 8.55193 14.4973 8.55193 14.4969 8.55193C13.8871 8.55137 13.3911 8.0551 13.3911 7.44521ZM12.0361 11.1672C12.338 10.0794 13.3313 9.30235 14.4969 9.30193H14.4979C14.4979 9.30193 14.4985 9.30193 14.4988 9.30193C15.6643 9.3024 16.6577 10.0794 16.9595 11.1672H12.0361Z"/>
</mask>
<path d="M23.0101 7.2691L21.8036 6.80471C21.6321 6.16023 21.3763 5.54303 21.041 4.9652L21.5661 3.78287C21.6291 3.64112 21.5983 3.47523 21.4886 3.36549L19.8852 1.76213C19.7755 1.65245 19.6096 1.6217 19.4678 1.6846L18.285 2.20984C17.7072 1.87468 17.0903 1.61888 16.4461 1.44742L15.9815 0.240525C15.9259 0.0957754 15.7867 0.000244141 15.6316 0.000244141H13.3641C13.209 0.000244141 13.0699 0.0957754 13.0141 0.240525L12.5495 1.44742C11.9053 1.61884 11.2884 1.87463 10.7106 2.20984L9.52785 1.68456C9.3861 1.62156 9.22016 1.6524 9.11047 1.76209L7.50707 3.36549C7.39738 3.47523 7.36653 3.64112 7.42949 3.78287L7.95472 4.96548C7.61947 5.54335 7.36367 6.16027 7.19225 6.80452L5.98546 7.26906C5.84071 7.32474 5.74517 7.46387 5.74517 7.61903V9.88656C5.74517 10.0417 5.84071 10.1808 5.98546 10.2365L7.19202 10.7009C7.36353 11.3455 7.61938 11.9627 7.95458 12.5404L7.42949 13.7228C7.40811 13.7708 7.39841 13.8216 7.39803 13.8721L6.04911 15.1833C5.87816 15.0729 5.6795 15.0113 5.47025 15.0083C5.17696 15.0041 4.89955 15.1141 4.69002 15.3178L0.331816 19.5541C-0.101871 19.9758 -0.111715 20.6717 0.309832 21.1054L1.886 22.727C2.10074 22.9479 2.38658 23.0588 2.6728 23.0588C2.94847 23.0588 3.22457 22.9558 3.43743 22.7489L7.79553 18.5127C8.00511 18.3091 8.12282 18.0352 8.12699 17.7416C8.12994 17.5323 8.07467 17.3315 7.96902 17.1574L9.31606 15.848C9.38628 15.8593 9.45978 15.8513 9.5278 15.8211L10.7106 15.2958C11.2885 15.631 11.9055 15.8868 12.5495 16.0582L13.0141 17.2652C13.0698 17.4099 13.2089 17.5054 13.364 17.5054H15.6316C15.7867 17.5054 15.9258 17.4099 15.9815 17.2652L16.446 16.0586C17.0905 15.8871 17.7077 15.6313 18.2855 15.296L19.4678 15.8211C19.6096 15.8842 19.7755 15.8533 19.8852 15.7436L21.4886 14.1402C21.5983 14.0304 21.6291 13.8646 21.5661 13.7228L21.0408 12.5401C21.376 11.9622 21.6318 11.3453 21.8032 10.7012L23.0101 10.2366C23.1549 10.1809 23.2504 10.0418 23.2504 9.88665V7.61912C23.2504 7.46392 23.1549 7.32479 23.0101 7.2691ZM6.59267 15.7011L7.84789 14.481L8.73449 15.3676L7.46652 16.6001L6.59267 15.7011ZM7.27288 17.9749L2.91477 22.2111C2.77743 22.3444 2.5573 22.3414 2.42389 22.2042L0.847769 20.5826C0.71441 20.4454 0.71755 20.2253 0.854753 20.0919L5.21296 15.8555C5.27886 15.7915 5.36638 15.7591 5.45975 15.7583C5.55303 15.7596 5.63966 15.7966 5.70369 15.8625L7.27991 17.4842C7.34394 17.55 7.37849 17.6377 7.37717 17.731C7.37581 17.8242 7.33878 17.9108 7.27288 17.9749ZM22.5004 9.62912L21.3524 10.0711C21.237 10.1154 21.1509 10.2139 21.1223 10.3342C20.9555 11.0351 20.6788 11.7025 20.2999 12.318C20.235 12.4232 20.2263 12.5537 20.2765 12.6668L20.7762 13.7919L19.5369 15.0312L18.4122 14.5317C18.2991 14.4814 18.1686 14.4902 18.0634 14.5551C17.4481 14.934 16.7805 15.2108 16.0791 15.3777C15.9588 15.4063 15.8603 15.4924 15.8159 15.6078L15.3741 16.7554H13.6216L13.1797 15.6074C13.1353 15.492 13.0368 15.4059 12.9165 15.3774C12.2157 15.2105 11.5483 14.9339 10.9327 14.5549C10.8274 14.49 10.6969 14.4812 10.5839 14.5315L9.4588 15.0312L8.21952 13.7919L8.71902 12.6672C8.76922 12.5542 8.76046 12.4237 8.69558 12.3184C8.31674 11.7032 8.03999 11.0357 7.87302 10.334C7.84438 10.2138 7.75832 10.1153 7.64291 10.0709L6.49527 9.62917V7.8766L7.64314 7.43471C7.7585 7.39032 7.84461 7.29184 7.87325 7.17156C8.04008 6.47049 8.31678 5.80304 8.69572 5.18762C8.76055 5.08234 8.76932 4.95184 8.71916 4.83882L8.21952 3.71382L9.4588 2.47454L10.5839 2.97423C10.6969 3.02443 10.8274 3.01571 10.9327 2.95084C11.548 2.57195 12.2155 2.29524 12.9165 2.12832C13.0368 2.09973 13.1353 2.01367 13.1796 1.89826L13.6216 0.750291H15.3741L15.816 1.89826C15.8604 2.01362 15.9589 2.09973 16.0791 2.12832C16.7802 2.29524 17.4477 2.57195 18.0629 2.95084C18.1683 3.01567 18.2988 3.02438 18.4118 2.97423L19.5369 2.47454L20.7762 3.71378L20.2766 4.83849C20.2264 4.95151 20.2352 5.08201 20.3 5.18734C20.679 5.80262 20.9557 6.47021 21.1226 7.17165C21.1513 7.29193 21.2373 7.39042 21.3527 7.43481L22.5004 7.87656L22.5004 9.62912ZM14.4979 3.28117C11.4808 3.28117 9.02619 5.73573 9.02619 8.75284C9.02619 11.7699 11.4808 14.2245 14.4979 14.2245C17.5149 14.2245 19.9695 11.7699 19.9695 8.75284C19.9695 5.73573 17.5149 3.28117 14.4979 3.28117ZM14.4979 13.4745C11.8943 13.4745 9.77619 11.3564 9.77619 8.75284C9.77619 6.14931 11.8943 4.03117 14.4979 4.03117C17.1014 4.03117 19.2195 6.14935 19.2195 8.75284C19.2195 11.3563 17.1013 13.4745 14.4979 13.4745ZM15.7631 8.80234C16.1266 8.4632 16.3546 7.98043 16.3546 7.44521C16.3546 6.42142 15.5217 5.58849 14.4979 5.58849C13.4741 5.58849 12.6411 6.42146 12.6411 7.44521C12.6411 7.98043 12.8691 8.46315 13.2326 8.80234C12.1443 9.25149 11.3437 10.2646 11.2113 11.5023C11.1999 11.6081 11.2341 11.7137 11.3052 11.7929C11.3763 11.872 11.4777 11.9172 11.5841 11.9172L17.4115 11.9171C17.5179 11.9171 17.6193 11.8719 17.6904 11.7928C17.7615 11.7137 17.7957 11.608 17.7844 11.5022C17.6519 10.2645 16.8514 9.25149 15.7631 8.80234ZM13.3911 7.44521C13.3911 6.83495 13.8876 6.33849 14.4979 6.33849C15.1081 6.33849 15.6046 6.83499 15.6046 7.44521C15.6046 8.05515 15.1086 8.55142 14.4988 8.55193C14.4985 8.55193 14.4982 8.55193 14.4979 8.55193C14.4975 8.55193 14.4973 8.55193 14.4969 8.55193C13.8871 8.55137 13.3911 8.0551 13.3911 7.44521ZM12.0361 11.1672C12.338 10.0794 13.3313 9.30235 14.4969 9.30193H14.4979C14.4979 9.30193 14.4985 9.30193 14.4988 9.30193C15.6643 9.3024 16.6577 10.0794 16.9595 11.1672H12.0361Z" fill="#605959" stroke="#605C5C" stroke-width="2" mask="url(#path-1-inside-1_23_1416)"/>
</svg>
