<svg width="24" height="25" viewBox="0 0 24 25" fill="none" xmlns="http://www.w3.org/2000/svg">
<path d="M11.7763 20.3615L11.4875 20.506L2.99998 16.7338V6.82818L11.2969 10.5157C11.3608 10.5441 11.43 10.5588 11.5 10.5588C11.57 10.5588 11.6392 10.5441 11.7031 10.5157L20 6.82818V11.0588C20.0013 11.1906 20.0545 11.3165 20.1481 11.4092C20.2418 11.5019 20.3682 11.554 20.5 11.554C20.6318 11.554 20.7582 11.5019 20.8518 11.4092C20.9455 11.3165 20.9987 11.1906 21 11.0588V6.05878C21 5.96207 20.9719 5.86744 20.9192 5.78635C20.8666 5.70526 20.7915 5.64119 20.7031 5.60189L11.7031 1.6019C11.6392 1.57353 11.57 1.55887 11.5 1.55887C11.43 1.55887 11.3608 1.57353 11.2969 1.6019L2.29686 5.60189C2.2085 5.64119 2.13343 5.70526 2.08075 5.78635C2.02806 5.86744 2.00001 5.96207 2 6.05878V17.0588C2.00001 17.1555 2.02806 17.2501 2.08075 17.3312C2.13344 17.4122 2.20851 17.4763 2.29686 17.5155L11.2969 21.5155C11.3642 21.5455 11.4374 21.5603 11.5112 21.5586C11.5849 21.557 11.6574 21.5391 11.7234 21.5062L12.2234 21.2562C12.2825 21.227 12.3353 21.1865 12.3787 21.1369C12.4221 21.0873 12.4552 21.0296 12.4763 20.9671C12.4973 20.9046 12.5057 20.8386 12.5012 20.7729C12.4966 20.7071 12.479 20.643 12.4496 20.584C12.4201 20.5251 12.3793 20.4725 12.3294 20.4294C12.2796 20.3863 12.2217 20.3535 12.1591 20.3328C12.0965 20.3121 12.0305 20.3041 11.9647 20.309C11.899 20.314 11.8349 20.3318 11.7762 20.3617L11.7763 20.3615ZM11.4998 9.51164L7.9625 7.9394L15.7031 4.4992C15.712 4.49521 15.7194 4.4894 15.728 4.48514L19.2688 6.05878L11.4998 9.51164ZM11.4998 2.60587L14.5003 3.93937L6.79686 7.36312C6.77702 7.37276 6.75785 7.38372 6.73948 7.39593L3.73123 6.05878L11.4998 2.60587Z" fill="#605959"/>
<path d="M17 11.5587C16.0111 11.5587 15.0444 11.852 14.2221 12.4014C13.3999 12.9508 12.759 13.7317 12.3806 14.6453C12.0021 15.5589 11.9031 16.5643 12.096 17.5342C12.2889 18.5041 12.7651 19.395 13.4644 20.0943C14.1637 20.7936 15.0546 21.2698 16.0245 21.4627C16.9944 21.6556 17.9997 21.5566 18.9134 21.1782C19.827 20.7997 20.6079 20.1589 21.1573 19.3366C21.7067 18.5144 22 17.5477 22 16.5588C21.9985 15.2331 21.4712 13.9622 20.5339 13.0249C19.5965 12.0875 18.3256 11.5602 17 11.5587ZM17 20.5587C16.2089 20.5587 15.4355 20.3242 14.7777 19.8846C14.1199 19.4451 13.6072 18.8204 13.3045 18.0895C13.0018 17.3586 12.9225 16.5543 13.0769 15.7784C13.2312 15.0025 13.6122 14.2898 14.1716 13.7303C14.731 13.1709 15.4437 12.79 16.2196 12.6356C16.9956 12.4813 17.7998 12.5605 18.5307 12.8633C19.2616 13.166 19.8863 13.6787 20.3259 14.3365C20.7654 14.9943 21 15.7676 21 16.5588C20.9988 17.6193 20.577 18.636 19.8271 19.3858C19.0772 20.1357 18.0605 20.5575 17 20.5587Z" fill="#605959"/>
<path d="M18.6465 15.2053L16.5 17.3518L15.6035 16.4553C15.5573 16.408 15.5021 16.3703 15.4413 16.3445C15.3804 16.3186 15.315 16.3051 15.2488 16.3048C15.1827 16.3044 15.1171 16.3171 15.0559 16.3423C14.9948 16.3674 14.9392 16.4044 14.8924 16.4512C14.8456 16.498 14.8086 16.5535 14.7835 16.6147C14.7583 16.6759 14.7456 16.7415 14.746 16.8076C14.7464 16.8737 14.7599 16.9391 14.7857 17C14.8115 17.0609 14.8492 17.1161 14.8965 17.1623L16.1465 18.4123C16.1929 18.4587 16.248 18.4956 16.3087 18.5207C16.3694 18.5459 16.4344 18.5588 16.5 18.5588C16.5657 18.5588 16.6307 18.5459 16.6914 18.5207C16.752 18.4956 16.8071 18.4587 16.8535 18.4123L19.3535 15.9123C19.4455 15.8182 19.4967 15.6916 19.4959 15.56C19.4951 15.4284 19.4425 15.3024 19.3495 15.2094C19.2564 15.1163 19.1304 15.0637 18.9988 15.0629C18.8672 15.0622 18.7406 15.1133 18.6465 15.2053V15.2053Z" fill="#605959"/>
</svg>
