<svg width="24" height="24" viewBox="0 0 24 24" fill="none" xmlns="http://www.w3.org/2000/svg">
<path d="M12 5.53149C8.43314 5.53149 5.53125 8.43338 5.53125 12.0002C5.53125 15.5671 8.43314 18.469 12 18.469C15.5669 18.469 18.4688 15.5671 18.4688 12.0002C18.4688 8.43338 15.5669 5.53149 12 5.53149ZM12 17.5315C8.95008 17.5315 6.46875 15.0502 6.46875 12.0002C6.46875 8.95032 8.95008 6.46899 12 6.46899C15.0499 6.46899 17.5312 8.95032 17.5312 12.0002C17.5312 15.0502 15.0499 17.5315 12 17.5315Z" fill="#605C5C"/>
<path d="M12.7649 11.5244C12.6674 11.49 12.5681 11.4542 12.4687 11.4172V9.57611C12.7174 9.65842 12.881 9.77448 12.8897 9.78071C13.0959 9.93498 13.3883 9.89401 13.544 9.68837C13.7004 9.48203 13.6598 9.18803 13.4535 9.0317C13.4285 9.01281 13.0409 8.72523 12.4687 8.60701V8.21828C12.4687 7.95939 12.2589 7.74953 12 7.74953C11.7411 7.74953 11.5312 7.95939 11.5312 8.21828V8.60382C11.469 8.61676 11.4062 8.63218 11.3426 8.65131C10.728 8.83595 10.2686 9.36114 10.1439 10.0218C10.0297 10.6264 10.2244 11.2103 10.6519 11.5457C10.8748 11.7204 11.1517 11.8802 11.5312 12.0487V14.4434C11.2148 14.4179 11.0101 14.338 10.6643 14.1118C10.4476 13.9701 10.1572 14.0308 10.0154 14.2475C9.87373 14.4642 9.93443 14.7547 10.1511 14.8964C10.6898 15.2488 11.0583 15.3554 11.5312 15.3831V15.7822C11.5312 16.0411 11.7411 16.251 12 16.251C12.2589 16.251 12.4687 16.0411 12.4687 15.7822V15.3298C13.3462 15.1147 13.9089 14.3686 14.0326 13.6328C14.1926 12.6808 13.6951 11.8532 12.7649 11.5244ZM11.2305 10.808C11.0818 10.6914 11.0169 10.4511 11.0651 10.1958C11.1078 9.96976 11.2526 9.70028 11.5312 9.57948V11.0039C11.4186 10.9409 11.3167 10.8757 11.2305 10.808ZM13.1081 13.4773C13.0519 13.8113 12.8351 14.1644 12.4687 14.3403V12.4145C13.183 12.6767 13.139 13.2933 13.1081 13.4773Z" fill="#605C5C"/>
<path d="M3 12.0002C3 7.03763 7.03739 3.00024 12 3.00024C14.1976 3.00024 16.2833 3.78699 17.9244 5.22545L17.564 5.58582C17.4416 5.70821 17.3966 5.88807 17.447 6.05368C17.4973 6.21929 17.6348 6.34365 17.8046 6.37717L21.3812 7.08324C21.5346 7.11357 21.693 7.06538 21.8035 6.95481C21.914 6.84428 21.9622 6.68593 21.9319 6.53256L21.2258 2.95595C21.1923 2.78612 21.0679 2.64863 20.9023 2.59829C20.7367 2.54799 20.5568 2.59295 20.4345 2.71529L20.0492 3.1006C17.8388 1.09773 14.9985 0.000244141 12 0.000244141C9.54914 0.000244141 7.19756 0.729572 5.19942 2.10938C4.98637 2.25648 4.93294 2.54842 5.08008 2.76146C5.22717 2.97451 5.51916 3.0279 5.73216 2.88081C7.57294 1.60965 9.74034 0.937744 12 0.937744C14.9071 0.937744 17.6528 2.05679 19.7315 4.08878C19.9151 4.26826 20.209 4.26662 20.3906 4.08503L20.4762 3.99938L20.8767 6.02804L18.8481 5.62754L18.9321 5.54359C19.0208 5.45485 19.0702 5.33434 19.0693 5.2089C19.0685 5.08346 19.0174 4.9636 18.9275 4.87613C17.0625 3.06188 14.6023 2.06274 12 2.06274C6.67763 2.06274 2.31909 6.26879 2.07342 11.5315H0.947203C1.03359 9.44148 1.69753 7.44559 2.88056 5.73249C3.02766 5.51949 2.97427 5.22756 2.76122 5.08042C2.54822 4.93328 2.25623 4.98671 2.10914 5.19976C0.729328 7.19785 0 9.54943 0 12.0002C0 12.2591 0.209859 12.469 0.46875 12.469H2.53125C2.79014 12.469 3 12.2591 3 12.0002Z" fill="#605C5C"/>
<path d="M23.5313 11.5315H21.4688C21.2099 11.5315 21 11.7414 21 12.0002C21 16.9629 16.9626 21.0002 12 21.0002C9.80243 21.0002 7.71678 20.2135 6.07564 18.775L6.43601 18.4147C6.5584 18.2923 6.6034 18.1124 6.55306 17.9468C6.50272 17.7812 6.36518 17.6568 6.1954 17.6233L2.61879 16.9172C2.46551 16.887 2.30708 16.9351 2.19654 17.0457C2.08601 17.1562 2.03787 17.3146 2.06815 17.4679L2.77423 21.0445C2.80775 21.2144 2.93211 21.3519 3.09772 21.4022C3.26337 21.4525 3.44318 21.4075 3.56558 21.2852L3.95084 20.8999C6.16123 22.9028 9.00148 24.0002 12 24.0002C15.2053 24.0002 18.2188 22.752 20.4853 20.4856C22.7518 18.219 24 15.2056 24 12.0002C24 11.7414 23.7902 11.5315 23.5313 11.5315ZM19.8224 19.8226C17.733 21.9121 14.9549 23.0627 12 23.0627C9.09294 23.0627 6.34718 21.9437 4.26856 19.9117C4.17743 19.8227 4.05917 19.7782 3.9409 19.7782C3.82086 19.7782 3.7009 19.824 3.60945 19.9155L3.52381 20.0011L3.12331 17.9724L5.15197 18.3729L5.06797 18.4569C4.97928 18.5456 4.92983 18.6661 4.93072 18.7916C4.93156 18.917 4.98265 19.0369 5.07261 19.1244C6.93753 20.9386 9.39776 21.9377 12 21.9377C17.3224 21.9377 21.6809 17.7317 21.9266 12.469H23.0528C22.9378 15.248 21.801 17.844 19.8224 19.8226Z" fill="#605C5C"/>
<path d="M3.84607 4.31509C3.96935 4.31509 4.09029 4.26494 4.17748 4.17775C4.26466 4.09056 4.31482 3.96963 4.31482 3.84634C4.31482 3.72306 4.26466 3.60213 4.17748 3.51494C4.09029 3.42775 3.96935 3.37759 3.84607 3.37759C3.72279 3.37759 3.60185 3.42775 3.51466 3.51494C3.42748 3.60213 3.37732 3.72306 3.37732 3.84634C3.37732 3.96963 3.42748 4.09056 3.51466 4.17775C3.60185 4.26494 3.72279 4.31509 3.84607 4.31509Z" fill="#605C5C"/>
</svg>
