<svg width="47" height="47" viewBox="0 0 47 47" fill="none" xmlns="http://www.w3.org/2000/svg">
<path d="M12.177 16.9646C11.4879 16.9646 10.9291 17.5056 10.9291 18.1727C10.9291 18.8398 11.4879 19.3807 12.177 19.3807H25.557C26.2461 19.3807 26.8049 18.8398 26.8049 18.1727C26.8049 17.5056 26.2461 16.9646 25.557 16.9646H12.177Z" fill="#8F8F8F"/>
<path d="M18.1931 23.8224H12.177C11.4879 23.8224 10.9291 24.3633 10.9291 25.0305C10.9291 25.6976 11.4879 26.2385 12.177 26.2385H18.1931C18.8822 26.2385 19.441 25.6976 19.441 25.0305C19.441 24.3633 18.8822 23.8224 18.1931 23.8224Z" fill="#8F8F8F"/>
<path d="M18.0087 39.1995H8.51097C6.46861 39.1995 4.80894 37.5861 4.80894 35.6022V11.1324C4.80894 9.14851 6.46861 7.53509 8.51097 7.53509H11.0885V7.83844C11.0885 9.60086 12.5693 11.0331 14.3899 11.0331H26.314C28.1345 11.0331 29.6153 9.60086 29.6153 7.83844V7.53509H32.1804C34.2561 7.53509 35.8811 9.11495 35.8811 11.1324V18.0183C35.8811 18.6854 36.4398 19.2264 37.1289 19.2264C37.8181 19.2264 38.3768 18.6854 38.3768 18.0183V11.1324C38.3768 7.81697 35.5968 5.11898 32.179 5.11898H29.614V4.81025C29.614 3.04784 28.1331 1.61562 26.3126 1.61562H14.3885C12.568 1.61562 11.0871 3.04784 11.0871 4.81025V5.11898H8.51097C5.09318 5.11898 2.3118 7.81697 2.3118 11.1324V35.6022C2.3118 38.9176 5.09318 41.6156 8.51097 41.6156H18.0087C18.6978 41.6156 19.2566 41.0747 19.2566 40.4076C19.2566 39.7405 18.6978 39.1995 18.0087 39.1995ZM13.5857 4.81025C13.5857 4.38072 13.9462 4.03173 14.3899 4.03173H26.314C26.7577 4.03173 27.1182 4.38072 27.1182 4.81025V7.8371C27.1182 8.26663 26.7577 8.61562 26.314 8.61562H14.3899C13.9462 8.61562 13.5857 8.26663 13.5857 7.8371V4.81025Z" fill="#8F8F8F"/>
<path d="M40.9904 23.4385C39.2822 21.7835 36.2998 21.7822 34.5902 23.4385L23.5271 34.1486C23.1707 34.4936 22.9378 34.9312 22.8532 35.413L22.2459 38.8882C22.117 39.6332 22.3707 40.3983 22.9225 40.9312C23.3787 41.3728 23.9957 41.6144 24.6294 41.6144C24.7639 41.6144 24.897 41.6036 25.0301 41.5822L28.6184 40.9956C29.1162 40.9137 29.5682 40.6882 29.9245 40.3432L40.9876 29.6332C42.7527 27.9258 42.7527 25.1473 40.9904 23.4385ZM28.2038 38.6144L24.7084 39.2895L25.2935 35.8573L33.2231 28.1808L36.0946 30.9607L28.2038 38.6144ZM39.224 27.9244L37.8569 29.2506L34.9867 26.4721L36.3553 25.1473C36.7379 24.7768 37.2482 24.5714 37.7889 24.5714C38.3324 24.5714 38.8413 24.7755 39.224 25.1473C40.0157 25.9137 40.0157 27.158 39.224 27.9244Z" fill="#8F8F8F"/>
</svg>
