<svg width="23" height="24" viewBox="0 0 23 24" fill="none" xmlns="http://www.w3.org/2000/svg">
<path d="M22.6451 21.9786L21.9644 18.1475C21.7841 17.1284 20.8462 16.163 19.8319 15.9467L14.7544 14.8757C15.7104 13.9503 16.4445 12.667 16.9324 11.3781C17.5612 11.1493 18.1928 10.5897 18.3756 9.85866C18.6194 8.89171 18.3621 8.02677 17.7626 7.64992V6.96615C18.3103 5.31366 18.5967 2.61397 16.107 1.16001C14.9927 0.50856 14.0667 0.466787 13.3695 0.694125C13.2609 0.411601 13.5858 0.000897255 13.5858 0.000897255C13.0122 -0.0186705 12.7101 0.286499 12.5857 0.458871C11.8192 0.107091 10.816 -0.0439547 9.53267 0.225157C5.41574 1.08922 4.89027 6.48135 5.6433 7.66333C5.05627 8.04172 4.80694 8.89633 5.04615 9.85625C5.22952 10.5895 5.86602 11.1515 6.49703 11.3779C6.97633 12.6692 7.70495 13.9525 8.65938 14.8764L6.35632 15.3618C6.19582 14.9502 5.95353 14.5615 5.62065 14.2304C4.99822 13.608 4.17044 13.2641 3.29165 13.2641C2.41198 13.2641 1.58419 13.608 0.963301 14.2289C-0.321577 15.5138 -0.320917 17.6014 0.964181 18.8871C1.0618 18.9839 1.17349 19.065 1.27968 19.1468L0.775319 21.9795C0.680998 22.5107 0.806759 23.015 1.13018 23.4022C1.45272 23.7879 1.92894 24.0002 2.46628 24.0002H20.9528C21.4941 24.0002 21.9679 23.7879 22.2913 23.4007C22.6152 23.0142 22.7403 22.5098 22.6451 21.9786ZM21.6882 22.8961C21.5167 23.1006 21.2555 23.2125 20.9517 23.2125H17.3589V22.2965H21.8668C21.8709 22.5223 21.8228 22.7347 21.6882 22.8961ZM2.46628 23.2125C2.16419 23.2125 1.90365 23.0999 1.73216 22.8961C1.59673 22.7347 1.54968 22.5223 1.55187 22.2965H6.05972V23.2125H2.46628ZM6.84661 23.2125V20.9668C6.84661 20.7489 6.67028 20.5735 6.45327 20.5735C6.23605 20.5735 6.05994 20.7489 6.05994 20.9668V21.5081H1.65653L1.99885 19.5858C2.4034 19.7589 2.83851 19.8525 3.29165 19.8525C4.16978 19.8525 4.99756 19.5087 5.61912 18.8862C6.37127 18.1347 6.66962 17.1056 6.54122 16.1252L7.33822 15.9577C8.50503 17.1128 10.0891 17.7768 11.7375 17.7768C13.404 17.7768 14.9525 17.1339 16.1305 15.9678L19.6699 16.7138C20.3695 16.8617 21.0649 17.5816 21.1918 18.2827L21.7654 21.5081H17.3613V20.9668C17.3613 20.7489 17.1843 20.5735 16.968 20.5735C16.7508 20.5735 16.5747 20.7489 16.5747 20.9668V23.2125H6.84661ZM3.28923 14.0525C3.95893 14.0525 4.58752 14.3137 5.06198 14.7882C5.28075 15.007 5.44432 15.2618 5.56635 15.5278C5.62065 15.6505 5.66243 15.775 5.69695 15.904C5.73147 16.0331 5.75521 16.1597 5.77016 16.2903C5.84887 17.0198 5.62065 17.7759 5.06352 18.3322C4.30038 19.0947 3.08608 19.2323 2.14748 18.7657C2.0215 18.7044 1.90124 18.6321 1.78625 18.5485C1.695 18.4808 1.60222 18.4148 1.51867 18.3337C1.49031 18.3047 1.46987 18.2693 1.44084 18.2385C0.550179 17.2566 0.571506 15.7365 1.51802 14.7882C1.99094 14.3122 2.61887 14.0525 3.28923 14.0525ZM11.7087 16.2353C12.545 16.2353 13.2996 15.9616 13.9702 15.5146L15.1787 15.7697C14.2094 16.5596 13.0118 16.9917 11.737 16.9917C10.4757 16.9917 9.2585 16.5462 8.28891 15.7596L9.44253 15.5164C10.1129 15.9632 10.869 16.2353 11.7087 16.2353ZM7.14958 10.6069C6.81517 10.6792 6.04411 10.2584 5.88977 9.6476C5.73322 9.02363 5.88185 8.44143 6.22176 8.34623C6.3218 8.31875 6.42645 8.33985 6.53089 8.39504V7.46172C6.53243 7.46018 6.5355 7.45622 6.53726 7.45468C6.53418 7.44369 6.53331 7.42786 6.53089 7.41291V7.08554C6.61751 6.29403 7.37054 4.806 11.4716 6.15068C12.888 6.61503 13.7631 5.87915 14.2021 4.90428C15.5987 5.0584 16.5296 6.64559 16.8877 7.62288V8.39482C16.939 8.3658 16.9915 8.34601 17.0436 8.33809C17.0412 8.34513 17.0427 8.35766 17.0397 8.3625C17.0507 8.37745 17.072 8.36712 17.1003 8.33963C17.1327 8.33963 17.1648 8.33502 17.1964 8.34513C17.5363 8.44033 17.685 9.02187 17.5284 9.64584C17.3765 10.2524 16.6094 10.6704 16.2774 10.6073C15.832 11.9614 14.9453 13.6918 13.6793 14.6477C13.5282 14.7618 13.3677 14.861 13.2057 14.9522C12.9759 15.0797 12.7359 15.1811 12.485 15.2504C12.2363 15.3196 11.9767 15.3614 11.7069 15.3614C11.4332 15.3614 11.1711 15.3212 10.9193 15.2521C10.6683 15.1829 10.4269 15.0813 10.1962 14.9555C10.0326 14.8649 9.87368 14.7651 9.72088 14.651C8.4659 13.7071 7.59656 11.9951 7.14958 10.6069ZM1.94367 17.0576L1.78075 16.9255L2.02788 16.6194L2.27566 16.3149L2.47552 16.4763L2.49135 16.4888L2.80619 16.7454L3.05398 16.9484L3.70081 16.3228L4.06666 15.9711L4.23508 15.8097L4.64029 15.4194L4.88411 15.6727L4.91314 15.7017L5.18621 15.9858L5.15323 16.0181L4.61896 16.5304L3.09949 17.9956L2.55731 17.5541L2.25126 17.3054L1.94367 17.0576Z" fill="#605959"/>
</svg>
