<svg width="40" height="32" viewBox="0 0 40 32" fill="none" xmlns="http://www.w3.org/2000/svg">
<path d="M39.8592 25.2608C39.8748 25.2344 39.8896 25.208 39.9028 25.1804C39.9168 25.1504 39.928 25.1196 39.9396 25.088C39.95 25.058 39.96 25.028 39.9676 24.9968C39.9752 24.9664 39.98 24.9356 39.9848 24.904C39.9904 24.8688 39.994 24.834 39.9952 24.7984C39.996 24.7844 39.9996 24.7716 39.9996 24.7572C39.9996 21.4964 38.1064 18.676 35.3656 17.3168C37.0976 16.1372 38.2384 14.15 38.2384 11.9008C38.2384 8.2904 35.3012 5.3532 31.6912 5.3532C30.56 5.3532 29.4548 5.65 28.4808 6.198C27.2948 2.6496 23.9424 0.0831985 20 0.0831985C16.0568 0.0831985 12.7036 2.65 11.5184 6.2C10.5472 5.652 9.4492 5.3536 8.3088 5.3536C4.6984 5.3536 1.7612 8.2908 1.7612 11.9012C1.7612 14.1504 2.9016 16.1376 4.634 17.3172C1.8932 18.676 0 21.4964 0 24.7576C0 24.7716 0.00360009 24.7844 0.00400009 24.7984C0.00520009 24.8344 0.00960026 24.8696 0.0148003 24.9048C0.0192003 24.936 0.0244002 24.9664 0.0316002 24.9968C0.0396002 25.028 0.0495996 25.0584 0.0603996 25.0888C0.0711996 25.12 0.0827997 25.1504 0.0963997 25.1804C0.1096 25.2084 0.1252 25.2356 0.1408 25.2624C0.1576 25.2904 0.174 25.3184 0.1928 25.3444C0.2116 25.37 0.2328 25.3944 0.254 25.4184C0.2748 25.4424 0.296 25.4656 0.3192 25.4872C0.3428 25.5092 0.368 25.5288 0.3936 25.5484C0.42 25.5688 0.4464 25.5884 0.4748 25.6056C0.5004 25.6216 0.5272 25.6352 0.5548 25.6488C0.5876 25.6652 0.6204 25.6804 0.6552 25.6928C0.6676 25.6976 0.6788 25.7044 0.6912 25.7088L19.6888 31.8672C19.7396 31.884 19.792 31.8964 19.8456 31.9052C19.8736 31.9096 19.9016 31.91 19.9296 31.912C19.9528 31.9136 19.976 31.9176 19.9996 31.9176C20.022 31.9176 20.0436 31.9136 20.066 31.9124C20.0952 31.9104 20.1244 31.91 20.1536 31.9052C20.2068 31.8968 20.2592 31.884 20.3104 31.8672L39.3076 25.7088C39.32 25.7048 39.3312 25.698 39.3432 25.6932C39.3784 25.6804 39.412 25.6652 39.4456 25.6484C39.472 25.6352 39.4984 25.6216 39.5236 25.6064C39.5524 25.5884 39.5796 25.5684 39.606 25.548C39.6312 25.5288 39.6556 25.5096 39.6788 25.4884C39.7028 25.466 39.7244 25.4424 39.746 25.4176C39.7668 25.394 39.7872 25.3708 39.8052 25.3456C39.8252 25.318 39.8424 25.29 39.8592 25.2608ZM37.9572 24.0444L31.3924 26.1724C31.1088 23.5852 29.9608 21.256 28.2448 19.4776C29.2632 18.8112 30.454 18.4492 31.6916 18.4492C34.9284 18.4492 37.6012 20.9008 37.9572 24.0444ZM20 29.8656L10.56 26.8056C10.8824 21.8776 14.992 17.9664 20 17.9664C25.008 17.9664 29.1172 21.8772 29.44 26.8056L20 29.8656ZM13.8032 15.4616C14.3536 15.992 14.9716 16.4524 15.6432 16.8288C14.8128 17.1712 14.0324 17.6092 13.3132 18.1276C12.8968 17.8132 12.4552 17.5404 11.9928 17.3116C12.7076 16.8252 13.3252 16.1992 13.8032 15.4616ZM26.198 15.4604C26.6764 16.2 27.2916 16.8272 28.0044 17.3128C27.5432 17.5412 27.102 17.8136 26.6868 18.1276C25.9676 17.6092 25.1872 17.1712 24.3572 16.8288C25.0288 16.4524 25.6472 15.9912 26.198 15.4604ZM31.6916 7.3536C34.1992 7.3536 36.2388 9.3936 36.2388 11.9012C36.2388 14.4092 34.1988 16.4492 31.6916 16.4492C29.9048 16.4492 28.2988 15.4104 27.5584 13.7936C28.4332 12.412 28.9416 10.7772 28.9416 9.0248C28.9416 8.7832 28.9292 8.5452 28.9104 8.3084C29.704 7.6936 30.682 7.3536 31.6916 7.3536ZM20 2.0832C23.8272 2.0832 26.9416 5.1972 26.9416 9.0248C26.9416 12.8524 23.8276 15.9664 20 15.9664C16.1724 15.9664 13.0584 12.8524 13.0584 9.0248C13.0584 5.1972 16.1724 2.0832 20 2.0832ZM3.7612 11.9012C3.7612 9.3936 5.8012 7.3536 8.3088 7.3536C9.3256 7.3536 10.296 7.6892 11.09 8.3048C11.0712 8.5428 11.0584 8.7824 11.0584 9.0252C11.0584 10.7776 11.5672 12.4128 12.442 13.794C11.7084 15.3992 10.1036 16.4496 8.3088 16.4496C5.8012 16.4492 3.7612 14.4088 3.7612 11.9012ZM8.3088 18.4492C9.5456 18.4492 10.7364 18.8112 11.7552 19.4776C10.0392 21.2564 8.8908 23.5856 8.6076 26.1724L2.0432 24.0444C2.3988 20.9008 5.0716 18.4492 8.3088 18.4492Z" fill="#8F8F8F"/>
</svg>
