<svg width="40" height="40" viewBox="0 0 40 40" fill="none" xmlns="http://www.w3.org/2000/svg">
<path d="M39.8592 29.2608C39.8748 29.2344 39.8896 29.208 39.9028 29.1804C39.9168 29.1504 39.928 29.1196 39.9396 29.088C39.95 29.058 39.96 29.028 39.9676 28.9968C39.9752 28.9664 39.98 28.9356 39.9848 28.904C39.9904 28.8688 39.994 28.834 39.9952 28.7984C39.996 28.7844 39.9996 28.7716 39.9996 28.7572C39.9996 25.4964 38.1064 22.676 35.3656 21.3168C37.0976 20.1372 38.2384 18.15 38.2384 15.9008C38.2384 12.2904 35.3012 9.3532 31.6912 9.3532C30.56 9.3532 29.4548 9.65 28.4808 10.198C27.2948 6.6496 23.9424 4.0832 20 4.0832C16.0568 4.0832 12.7036 6.65 11.5184 10.2C10.5472 9.652 9.4492 9.3536 8.3088 9.3536C4.6984 9.3536 1.7612 12.2908 1.7612 15.9012C1.7612 18.1504 2.9016 20.1376 4.634 21.3172C1.8932 22.676 0 25.4964 0 28.7576C0 28.7716 0.00360009 28.7844 0.00400009 28.7984C0.00520009 28.8344 0.00960026 28.8696 0.0148003 28.9048C0.0192003 28.936 0.0244002 28.9664 0.0316002 28.9968C0.0396002 29.028 0.0495996 29.0584 0.0603996 29.0888C0.0711996 29.12 0.0827997 29.1504 0.0963997 29.1804C0.1096 29.2084 0.1252 29.2356 0.1408 29.2624C0.1576 29.2904 0.174 29.3184 0.1928 29.3444C0.2116 29.37 0.2328 29.3944 0.254 29.4184C0.2748 29.4424 0.296 29.4656 0.3192 29.4872C0.3428 29.5092 0.368 29.5288 0.3936 29.5484C0.42 29.5688 0.4464 29.5884 0.4748 29.6056C0.5004 29.6216 0.5272 29.6352 0.5548 29.6488C0.5876 29.6652 0.6204 29.6804 0.6552 29.6928C0.6676 29.6976 0.6788 29.7044 0.6912 29.7088L19.6888 35.8672C19.7396 35.884 19.792 35.8964 19.8456 35.9052C19.8736 35.9096 19.9016 35.91 19.9296 35.912C19.9528 35.9136 19.976 35.9176 19.9996 35.9176C20.022 35.9176 20.0436 35.9136 20.066 35.9124C20.0952 35.9104 20.1244 35.91 20.1536 35.9052C20.2068 35.8968 20.2592 35.884 20.3104 35.8672L39.3076 29.7088C39.32 29.7048 39.3312 29.698 39.3432 29.6932C39.3784 29.6804 39.412 29.6652 39.4456 29.6484C39.472 29.6352 39.4984 29.6216 39.5236 29.6064C39.5524 29.5884 39.5796 29.5684 39.606 29.548C39.6312 29.5288 39.6556 29.5096 39.6788 29.4884C39.7028 29.466 39.7244 29.4424 39.746 29.4176C39.7668 29.394 39.7872 29.3708 39.8052 29.3456C39.8252 29.318 39.8424 29.29 39.8592 29.2608ZM37.9572 28.0444L31.3924 30.1724C31.1088 27.5852 29.9608 25.256 28.2448 23.4776C29.2632 22.8112 30.454 22.4492 31.6916 22.4492C34.9284 22.4492 37.6012 24.9008 37.9572 28.0444ZM20 33.8656L10.56 30.8056C10.8824 25.8776 14.992 21.9664 20 21.9664C25.008 21.9664 29.1172 25.8772 29.44 30.8056L20 33.8656ZM13.8032 19.4616C14.3536 19.992 14.9716 20.4524 15.6432 20.8288C14.8128 21.1712 14.0324 21.6092 13.3132 22.1276C12.8968 21.8132 12.4552 21.5404 11.9928 21.3116C12.7076 20.8252 13.3252 20.1992 13.8032 19.4616ZM26.198 19.4604C26.6764 20.2 27.2916 20.8272 28.0044 21.3128C27.5432 21.5412 27.102 21.8136 26.6868 22.1276C25.9676 21.6092 25.1872 21.1712 24.3572 20.8288C25.0288 20.4524 25.6472 19.9912 26.198 19.4604ZM31.6916 11.3536C34.1992 11.3536 36.2388 13.3936 36.2388 15.9012C36.2388 18.4092 34.1988 20.4492 31.6916 20.4492C29.9048 20.4492 28.2988 19.4104 27.5584 17.7936C28.4332 16.412 28.9416 14.7772 28.9416 13.0248C28.9416 12.7832 28.9292 12.5452 28.9104 12.3084C29.704 11.6936 30.682 11.3536 31.6916 11.3536ZM20 6.0832C23.8272 6.0832 26.9416 9.1972 26.9416 13.0248C26.9416 16.8524 23.8276 19.9664 20 19.9664C16.1724 19.9664 13.0584 16.8524 13.0584 13.0248C13.0584 9.1972 16.1724 6.0832 20 6.0832ZM3.7612 15.9012C3.7612 13.3936 5.8012 11.3536 8.3088 11.3536C9.3256 11.3536 10.296 11.6892 11.09 12.3048C11.0712 12.5428 11.0584 12.7824 11.0584 13.0252C11.0584 14.7776 11.5672 16.4128 12.442 17.794C11.7084 19.3992 10.1036 20.4496 8.3088 20.4496C5.8012 20.4492 3.7612 18.4088 3.7612 15.9012ZM8.3088 22.4492C9.5456 22.4492 10.7364 22.8112 11.7552 23.4776C10.0392 25.2564 8.8908 27.5856 8.6076 30.1724L2.0432 28.0444C2.3988 24.9008 5.0716 22.4492 8.3088 22.4492Z" fill="#8F8F8F"/>
</svg>
