<svg width="40" height="40" viewBox="0 0 40 40" fill="none" xmlns="http://www.w3.org/2000/svg">
<g clip-path="url(#clip0_23_1616)">
<path d="M11.8414 16.3226C11.696 16.1773 11.4945 16.0937 11.289 16.0937C11.0835 16.0937 10.8821 16.1772 10.7367 16.3226C10.5914 16.4679 10.5078 16.6695 10.5078 16.8749C10.5078 17.0804 10.5914 17.282 10.7367 17.4272C10.882 17.5725 11.0835 17.6562 11.289 17.6562C11.4945 17.6562 11.696 17.5726 11.8414 17.4272C11.9867 17.282 12.0703 17.0804 12.0703 16.8749C12.0703 16.6695 11.9867 16.4679 11.8414 16.3226Z" fill="#8F8F8F"/>
<path d="M37.6562 0H6.56255C5.27021 0 4.2188 1.0514 4.2188 2.34374V15.3124C4.2188 16.6048 5.27021 17.6562 6.56255 17.6562H7.96879C8.40027 17.6562 8.75004 17.3063 8.75004 16.8749C8.75004 16.4435 8.40027 16.0937 7.96879 16.0937H6.56255C6.13177 16.0937 5.7813 15.7432 5.7813 15.3124V2.34374C5.7813 1.91296 6.13177 1.56249 6.56255 1.56249H37.6562C38.087 1.56249 38.4374 1.91296 38.4374 2.34374V15.3124C38.4374 15.7432 38.087 16.0937 37.6562 16.0937H32.4306C32.2235 16.0937 32.0247 16.176 31.8782 16.3225L29.3057 18.8951L26.7331 16.3225C26.5866 16.176 26.3879 16.0937 26.1807 16.0937H20.0881C20.0307 15.9462 19.9658 15.8006 19.8923 15.6578C19.3329 14.571 18.3807 13.7767 17.2113 13.4212L16.0818 13.0778C15.6841 12.9567 15.2613 13.1685 15.1199 13.5594L13.3451 18.4648C12.8528 19.8253 11.8819 20.9556 10.6113 21.6476L8.94519 22.5548C8.53574 22.0577 7.91582 21.7403 7.22309 21.7403H2.23092C1.00093 21.7403 0.000305194 22.741 0.000305194 23.971V37.7691C0.000148945 38.9991 1.00085 39.9998 2.23084 39.9998H7.22301C8.00066 39.9998 8.68621 39.5996 9.08558 38.9945L9.88277 39.3072C11.0548 39.767 12.2875 40 13.5467 40H24.0879C25.6695 40 26.9562 38.7133 26.9562 37.1316C26.9562 36.6081 26.8146 36.1174 26.5686 35.6945C27.7322 35.3288 28.5786 34.2402 28.5786 32.9574C28.5786 32.4207 28.43 31.918 28.1724 31.4879C29.2864 31.0939 30.0869 30.0305 30.0869 28.7832C30.0869 27.484 29.2183 26.3843 28.0316 26.0329C28.2729 25.6129 28.4117 25.1269 28.4117 24.6088C28.4117 23.0273 27.125 21.7405 25.5433 21.7405H19.2787L20.1548 19.1394C20.3185 18.6531 20.396 18.1531 20.3907 17.6563H25.8571L28.7532 20.5524C28.9058 20.7049 29.1057 20.7812 29.3057 20.7812C29.5056 20.7812 29.7056 20.7049 29.8581 20.5524L32.7543 17.6562H37.6562C38.9485 17.6562 39.9999 16.6048 39.9999 15.3124V2.34374C39.9999 1.0514 38.9485 0 37.6562 0ZM7.89121 37.7691C7.89113 38.1376 7.59145 38.4374 7.22301 38.4374H2.23084C1.86241 38.4374 1.56272 38.1376 1.56272 37.7691V23.9711C1.56272 23.6026 1.86241 23.3029 2.23084 23.3029H3.94568V32.9217C3.94568 33.3531 4.29544 33.7029 4.72693 33.7029C5.15841 33.7029 5.50817 33.3531 5.50817 32.9217V23.3029H7.22301C7.51481 23.3029 7.76285 23.4912 7.85371 23.7525C7.8602 23.7903 7.86957 23.8278 7.88192 23.8649C7.88746 23.8996 7.89121 23.9348 7.89121 23.9711V37.7691ZM25.5434 23.3028V23.3029C26.2635 23.3029 26.8493 23.8887 26.8493 24.6087C26.8493 25.3288 26.2635 25.9147 25.5434 25.9147H21.3051C20.8736 25.9147 20.5238 26.2645 20.5238 26.6959C20.5238 27.1273 20.8736 27.4772 21.3051 27.4772L27.2186 27.4773C27.9387 27.4773 28.5245 28.0631 28.5245 28.7832C28.5245 29.5032 27.9387 30.0891 27.2186 30.0891H21.3051C20.8736 30.0891 20.5238 30.4389 20.5238 30.8703C20.5238 31.3018 20.8736 31.6516 21.3051 31.6516H25.7104C26.4304 31.6516 27.0162 32.2374 27.0162 32.9574C27.0162 33.6775 26.4304 34.2633 25.7104 34.2633H21.3051C20.8736 34.2633 20.5238 34.6131 20.5238 35.0445C20.5238 35.476 20.8736 35.8258 21.3051 35.8258H24.0879C24.808 35.8258 25.3938 36.4117 25.3938 37.1317C25.3938 37.8518 24.808 38.4376 24.0879 38.4376H13.5467C12.4836 38.4376 11.4428 38.2407 10.4532 37.8527L9.45363 37.4606V24.057L11.3584 23.0198C12.9647 22.1451 14.192 20.7163 14.8142 18.9964L16.3368 14.7885L16.7568 14.9161C17.5185 15.1478 18.1387 15.6651 18.503 16.3729C18.8674 17.0807 18.9281 17.8861 18.674 18.6406L17.4508 22.2722C17.3705 22.5106 17.4099 22.7731 17.5566 22.9773C17.7034 23.1816 17.9395 23.3028 18.1912 23.3028H25.5434Z" fill="#8F8F8F"/>
<path d="M36.4218 7.57622C36.2738 7.12122 35.8877 6.79584 35.4141 6.72716L34.0323 6.52677L33.4139 5.27482C33.202 4.84584 32.7734 4.57944 32.2949 4.57944H32.2946C31.8161 4.57959 31.3874 4.84623 31.1757 5.27537L30.5581 6.52771L29.1762 6.72888C28.7027 6.79787 28.3168 7.12341 28.169 7.57857C28.0213 8.03364 28.1424 8.52387 28.4852 8.85786L29.4853 9.83223L29.2496 11.2086C29.1689 11.6803 29.3592 12.1478 29.7464 12.4291C29.9652 12.5879 30.221 12.6685 30.4786 12.6685C30.6771 12.6685 30.8766 12.6207 31.0609 12.5237L32.2967 11.8735L33.5329 12.523C33.9565 12.7455 34.4601 12.709 34.8472 12.4276C35.2342 12.1462 35.4243 11.6785 35.3433 11.2068L35.1069 9.83067L36.1066 8.85567C36.4489 8.52145 36.5698 8.03122 36.4218 7.57622ZM33.8974 8.82755C33.6032 9.11434 33.4692 9.52739 33.5388 9.93231L33.6952 10.8434L32.8766 10.4132C32.5128 10.2225 32.0787 10.2225 31.7153 10.4137L30.8971 10.8442L31.0532 9.93301C31.1225 9.52793 30.9882 9.11497 30.6939 8.82833L30.0317 8.18317L30.9466 8.04997C31.3532 7.99083 31.7044 7.73552 31.886 7.36708L32.295 6.53795L32.7044 7.36685C32.8863 7.73521 33.2377 7.99028 33.6442 8.04927L34.5592 8.18192L33.8974 8.82755Z" fill="#8F8F8F"/>
<path d="M26.4833 7.57622C26.3353 7.12122 25.9493 6.79591 25.4757 6.72716L24.0938 6.52677L23.4754 5.27482C23.2636 4.84584 22.8349 4.57944 22.3565 4.57944H22.3562C21.8776 4.57959 21.4488 4.84623 21.2372 5.27545L20.6196 6.52771L19.2377 6.72888C18.7642 6.79787 18.3783 7.12341 18.2305 7.57857C18.0828 8.03364 18.2039 8.52387 18.5467 8.85786L19.5469 9.83223L19.3112 11.2086C19.2304 11.6803 19.4208 12.1479 19.808 12.4291C20.0266 12.5879 20.2825 12.6685 20.5401 12.6685C20.7385 12.6685 20.938 12.6207 21.1223 12.5237L22.3581 11.8735L23.5944 12.523C24.018 12.7455 24.5215 12.709 24.9086 12.4276C25.2957 12.1462 25.4858 11.6785 25.4047 11.2068L25.1683 9.83067L26.1681 8.85567C26.5105 8.52145 26.6314 8.0313 26.4833 7.57622ZM23.9589 8.82755C23.6647 9.11434 23.5308 9.52739 23.6003 9.93231L23.7568 10.8434L22.9381 10.4133C22.5743 10.2223 22.1401 10.2225 21.7768 10.4137L20.9586 10.8442L21.1146 9.93301C21.184 9.52793 21.0497 9.11497 20.7554 8.82833L20.0931 8.18317L21.008 8.04997C21.4145 7.99083 21.7657 7.7356 21.9476 7.367L22.3565 6.53787L22.7658 7.36669C22.9476 7.73513 23.299 7.99028 23.7057 8.04927L24.6206 8.18192L23.9589 8.82755Z" fill="#8F8F8F"/>
<path d="M16.5449 7.57622C16.3969 7.12122 16.0108 6.79584 15.5373 6.72716L14.1554 6.52677L13.537 5.27482C13.3252 4.84584 12.8965 4.57944 12.4181 4.57944H12.4178C11.9392 4.57959 11.5104 4.84623 11.2988 5.27545L10.6812 6.52771L9.29933 6.72888C8.82574 6.79787 8.43988 7.12349 8.29207 7.57864C8.14434 8.03372 8.26551 8.52395 8.60824 8.85786L9.60839 9.83223L9.37269 11.2086C9.29191 11.6803 9.4823 12.1479 9.86949 12.4291C10.0882 12.5879 10.344 12.6685 10.6016 12.6685C10.8 12.6685 10.9995 12.6207 11.1838 12.5237L12.4196 11.8735L13.6558 12.523C14.0794 12.7455 14.583 12.709 14.9701 12.4276C15.3571 12.1462 15.5472 11.6785 15.4662 11.2068L15.2298 9.83067L16.2295 8.85567C16.5721 8.52145 16.6929 8.0313 16.5449 7.57622ZM14.0205 8.82755C13.7263 9.11434 13.5924 9.52739 13.6619 9.93231L13.8184 10.8434L12.9997 10.4133C12.636 10.2223 12.2017 10.2225 11.8384 10.4137L11.0202 10.8442L11.1763 9.93278C11.2455 9.52786 11.1112 9.11504 10.817 8.82833L10.1547 8.18317L11.0696 8.04997C11.4761 7.99083 11.8273 7.7356 12.0092 7.367L12.4181 6.53787L12.8274 7.36669C13.0092 7.73513 13.3606 7.99028 13.7673 8.04927L14.6823 8.18192L14.0205 8.82755Z" fill="#8F8F8F"/>
<path d="M4.72685 34.9498C4.29537 34.9498 3.9456 35.2996 3.9456 35.731V35.7432C3.9456 36.1746 4.29537 36.5245 4.72685 36.5245C5.15833 36.5245 5.5081 36.1746 5.5081 35.7432V35.731C5.5081 35.2996 5.15833 34.9498 4.72685 34.9498Z" fill="#8F8F8F"/>
</g>
<defs>
<clipPath id="clip0_23_1616">
<rect width="40" height="40" fill="white"/>
</clipPath>
</defs>
</svg>
