<svg width="24" height="25" viewBox="0 0 24 25" fill="none" xmlns="http://www.w3.org/2000/svg">
<path d="M12.2733 1.84003C14.5364 1.84003 17.6634 2.13768 18.6666 2.33831C18.6698 2.33878 18.6731 2.33971 18.6764 2.34018C20.0437 2.6055 21.4463 3.94471 21.7448 5.26846C22.0645 6.813 22.215 8.35237 22.2183 10.1125C22.215 11.8722 22.0645 13.4121 21.7448 14.9566C21.4463 16.2799 20.0437 17.6196 18.6764 17.8849C18.6731 17.8853 18.6698 17.8863 18.6666 17.8867C18.0666 18.0067 16.8056 18.1492 15.4533 18.25C14.8931 18.2917 14.385 18.5955 14.0831 19.0694C13.9214 19.323 13.7489 19.5892 13.5698 19.8607C12.975 20.7616 12.4477 21.5107 12 22.0919C11.5523 21.5107 11.025 20.7616 10.4302 19.8607C10.2511 19.5892 10.0781 19.323 9.91687 19.0694C9.615 18.5955 9.10734 18.2917 8.54672 18.25C7.19484 18.1492 5.93344 18.0067 5.33344 17.8867C5.33016 17.8863 5.32688 17.8853 5.32359 17.8849C3.95625 17.6196 2.55375 16.2803 2.25516 14.9566C1.93547 13.4121 1.785 11.8727 1.78172 10.1125C1.785 8.35237 1.93547 6.813 2.25516 5.26846C2.55375 3.94518 3.95625 2.60596 5.32359 2.34065C5.32688 2.34018 5.33016 2.33925 5.33344 2.33878C6.33703 2.13815 9.46359 1.8405 11.7267 1.8405C11.813 1.8405 11.8973 1.8405 11.9803 1.8419H12C12 1.8419 12.0131 1.8419 12.0197 1.8419C12.1027 1.84096 12.187 1.8405 12.2733 1.8405M11.7267 0.0587769C9.43547 0.0587769 6.18094 0.352214 4.98422 0.591277C2.94047 0.987839 0.964687 2.85487 0.513281 4.893C0.256406 6.1305 0.00375 7.81425 0 10.1125C0.00375 12.4108 0.256406 14.0941 0.513281 15.3316C0.964687 17.3697 2.94047 19.2367 4.98422 19.6333C5.65641 19.7678 6.97875 19.9192 8.41406 20.0261C8.57672 20.2816 8.75297 20.5535 8.94375 20.8417C9.70547 21.9953 10.2886 22.7992 10.7302 23.3594C11.0977 23.8253 11.5491 24.0583 12 24.0583C12.4509 24.0583 12.9023 23.8253 13.2698 23.3594C13.7114 22.7992 14.2941 21.9953 15.0563 20.8417C15.247 20.553 15.4228 20.2816 15.5859 20.0261C17.0217 19.9192 18.3436 19.7678 19.0163 19.6333C21.06 19.2367 23.0358 17.3697 23.4872 15.3316C23.7441 14.0941 23.9967 12.4108 24.0005 10.1125C23.9967 7.81425 23.7441 6.13096 23.4872 4.89346C23.0358 2.85534 21.06 0.988308 19.0163 0.591746C17.8191 0.352214 14.5645 0.0587769 12.2733 0.0587769C12.1805 0.0587769 12.0895 0.0592456 12 0.0601831C11.9109 0.0592456 11.8195 0.0587769 11.7267 0.0587769Z" fill="#605C5C" fill-opacity="0.8"/>
<path d="M13.3256 17.1039C13.275 17.3894 13.0162 17.6481 12.7308 17.6988C12.5578 17.7274 12.322 17.7546 12 17.755C11.6784 17.755 11.4426 17.7278 11.2692 17.6988C10.9837 17.6481 10.725 17.3894 10.6744 17.1039C10.6458 16.931 10.6186 16.6952 10.6181 16.3731C10.6181 16.0516 10.6453 15.8158 10.6744 15.6424C10.725 15.3569 10.9837 15.0981 11.2692 15.0475C11.4422 15.0189 11.6779 14.9917 12 14.9913C12.3215 14.9913 12.5573 15.0185 12.7308 15.0475C13.0162 15.0981 13.275 15.3569 13.3256 15.6424C13.3542 15.8153 13.3814 16.0511 13.3819 16.3731C13.3819 16.6947 13.3547 16.9305 13.3256 17.1039Z" fill="#605C5C" fill-opacity="0.8"/>
<path d="M11.9512 13.5775C11.5031 13.5775 11.1173 13.24 11.0672 12.7844C11.0606 12.7225 11.0058 12.1623 11.1778 11.4911C11.4229 10.5353 11.9995 9.80735 12.8451 9.38735C14.3929 8.61766 14.5129 7.74766 14.5129 7.49923C14.5129 7.3136 14.4398 6.9086 14.1665 6.56876C13.8 6.1136 13.1653 5.88298 12.2798 5.88298C11.3943 5.88298 10.807 6.18298 10.3481 6.80032C10.005 7.26157 9.89575 7.72563 9.89482 7.72985C9.7931 8.21126 9.3206 8.51876 8.83919 8.41657C8.35779 8.31485 8.05029 7.84188 8.15247 7.36094C8.17029 7.2761 8.34466 6.50969 8.91888 5.73719C9.47388 4.99094 10.5075 4.10126 12.2803 4.10126C15.4561 4.10126 16.2951 6.3236 16.2951 7.49829C16.2951 8.14845 16.0364 9.78954 13.6392 10.9811C12.7223 11.4367 12.8372 12.5767 12.8386 12.588C12.8925 13.0769 12.54 13.517 12.0511 13.5709C12.0178 13.5747 11.985 13.5766 11.9522 13.5766L11.9512 13.5775Z" fill="#605C5C" fill-opacity="0.8"/>
</svg>
