<svg width="24" height="25" viewBox="0 0 24 25" fill="none" xmlns="http://www.w3.org/2000/svg">
<path d="M8.89378 11.5959C6.13453 14.3258 8.11982 19.1158 12 19.0952C13.1634 19.0896 14.2776 18.625 15.1003 17.8023C15.9229 16.9796 16.3875 15.8655 16.393 14.7021C16.4252 10.8325 11.6139 8.8401 8.89378 11.5959ZM14.5759 17.278C13.8921 17.9601 12.9658 18.3432 12 18.3432C11.0342 18.3432 10.1078 17.9601 9.42406 17.278C7.12321 15.0251 8.81483 11.0186 12.0001 11.0613C15.1851 11.019 16.877 15.0255 14.5759 17.278Z" fill="#1E1A1A"/>
<path d="M22.4993 8.96649V5.94745C22.4989 5.5647 22.3467 5.19774 22.076 4.92709C21.8054 4.65645 21.4384 4.50423 21.0557 4.50384H14.2833C14.1925 4.5054 14.1023 4.48845 14.0183 4.45401C13.9342 4.41957 13.8581 4.36836 13.7944 4.30352L12.3472 2.86248C12.2144 2.72581 12.0554 2.61737 11.8797 2.54368C11.704 2.46999 11.5152 2.43256 11.3247 2.43365H4.54688C4.16483 2.43489 3.79887 2.5876 3.52927 2.8583C3.25967 3.129 3.10844 3.49557 3.10875 3.87762V5.18427C2.90139 5.17484 2.69426 5.20746 2.49983 5.28016C2.3054 5.35287 2.12769 5.46416 1.9774 5.60734C1.8271 5.75052 1.70733 5.92262 1.62529 6.1133C1.54324 6.30397 1.50063 6.50928 1.5 6.71686V20.1513C1.50039 20.5576 1.66194 20.9471 1.94919 21.2344C2.23644 21.5218 2.62594 21.6834 3.03223 21.6839H20.9678C21.3741 21.6834 21.7636 21.5218 22.0508 21.2344C22.3381 20.9471 22.4996 20.5576 22.5 20.1513L22.4993 8.96649ZM3.85875 3.87762C3.85818 3.6944 3.93031 3.51845 4.05932 3.38835C4.18832 3.25825 4.36366 3.18463 4.54688 3.18365H11.3247C11.4159 3.18309 11.5063 3.20108 11.5903 3.23652C11.6744 3.27196 11.7503 3.32412 11.8136 3.38982L13.2605 4.8305C13.3936 4.96643 13.5528 5.07402 13.7286 5.14677C13.9044 5.21953 14.0931 5.25595 14.2833 5.25384H21.0557C21.2395 5.25409 21.4158 5.32725 21.5458 5.45727C21.6759 5.58729 21.749 5.76356 21.7493 5.94744V7.65616C21.5136 7.51233 21.2431 7.4356 20.967 7.43426H13.604C13.5012 7.43456 13.3993 7.41445 13.3044 7.3751C13.2094 7.33575 13.1231 7.27793 13.0507 7.20501L11.4789 5.63323C11.337 5.49041 11.1681 5.37718 10.9821 5.30011C10.7961 5.22305 10.5966 5.18367 10.3953 5.18427H3.85875V3.87762ZM20.9678 20.9339H3.03223C2.82479 20.9336 2.62595 20.851 2.4793 20.7043C2.33266 20.5576 2.2502 20.3587 2.25 20.1513V6.71685C2.2502 6.50942 2.33266 6.31054 2.47931 6.16383C2.62595 6.01712 2.8248 5.93456 3.03223 5.93427H10.3953C10.4981 5.93397 10.5999 5.95408 10.6949 5.99344C10.7899 6.03279 10.8761 6.0906 10.9486 6.16352L12.5204 7.7353C12.6623 7.87812 12.8312 7.99135 13.0172 8.06842C13.2032 8.14549 13.4027 8.18487 13.604 8.18427H20.967C21.1744 8.18448 21.3733 8.26696 21.5199 8.41361C21.6666 8.56026 21.7491 8.7591 21.7493 8.9665C21.7493 8.9665 21.7495 20.1489 21.75 20.1513C21.7498 20.3588 21.6674 20.5576 21.5207 20.7043C21.3741 20.8511 21.1752 20.9336 20.9678 20.9339Z" fill="#1E1A1A"/>
<path d="M12 15.574C12.0493 15.5741 12.098 15.5644 12.1435 15.5455C12.1891 15.5267 12.2304 15.4991 12.2652 15.4643C12.3001 15.4294 12.3277 15.3881 12.3465 15.3426C12.3653 15.2971 12.375 15.2483 12.375 15.199V12.3613C12.375 12.2618 12.3355 12.1664 12.2652 12.0961C12.1948 12.0258 12.0995 11.9863 12 11.9863C11.9005 11.9863 11.8052 12.0258 11.7348 12.0961C11.6645 12.1664 11.625 12.2618 11.625 12.3613V15.199C11.625 15.2483 11.6347 15.2971 11.6535 15.3426C11.6723 15.3881 11.6999 15.4294 11.7348 15.4643C11.7696 15.4991 11.8109 15.5267 11.8565 15.5455C11.902 15.5644 11.9507 15.5741 12 15.574Z" fill="#1E1A1A"/>
<path d="M12 16.0855C11.8743 16.0874 11.7545 16.1387 11.6663 16.2283C11.5781 16.3179 11.5286 16.4385 11.5286 16.5642C11.5286 16.6899 11.5781 16.8106 11.6663 16.9001C11.7545 16.9897 11.8744 17.041 12 17.0429C12.1257 17.041 12.2456 16.9897 12.3338 16.9001C12.422 16.8105 12.4714 16.6899 12.4714 16.5642C12.4714 16.4385 12.422 16.3178 12.3338 16.2283C12.2456 16.1387 12.1257 16.0874 12 16.0855Z" fill="#1E1A1A"/>
</svg>
