<svg width="24" height="25" viewBox="0 0 24 25" fill="none" xmlns="http://www.w3.org/2000/svg">
<path d="M12 5.83655C8.56888 5.83655 5.77777 8.62766 5.77777 12.0588C5.77777 15.4899 8.56888 18.281 12 18.281C15.4311 18.281 18.2222 15.4899 18.2222 12.0588C18.2222 8.62766 15.4311 5.83655 12 5.83655ZM12 17.3921C9.0591 17.3921 6.66666 14.9997 6.66666 12.0588C6.66666 9.11788 9.0591 6.72544 12 6.72544C14.9409 6.72544 17.3333 9.11788 17.3333 12.0588C17.3333 14.9997 14.9409 17.3921 12 17.3921Z" fill="#605C5C"/>
<path d="M22.7644 9.39211H21.8676C21.6387 8.54233 21.3022 7.729 20.8631 6.96678L21.4969 6.333C21.7302 6.09967 21.8587 5.789 21.8587 5.45922C21.8587 5.129 21.7302 4.81878 21.4969 4.585L19.4733 2.56144C19.0067 2.09522 18.1929 2.09433 17.7253 2.56144L17.0916 3.19522C16.3289 2.75655 15.516 2.42011 14.6667 2.19122V1.29433C14.6667 0.612999 14.1124 0.0587769 13.4311 0.0587769H10.5689C9.88756 0.0587769 9.33333 0.612999 9.33333 1.29433V2.19122C8.484 2.42011 7.67111 2.75655 6.908 3.19567L6.27422 2.56189C5.80711 2.09433 4.99289 2.09522 4.52622 2.56189L2.50267 4.58544C2.26933 4.81878 2.14089 5.12944 2.14089 5.45967C2.14089 5.78944 2.26933 6.09967 2.50267 6.33344L3.13644 6.96722C2.69778 7.729 2.36089 8.54233 2.13244 9.39211H1.23556C0.554222 9.39211 0 9.94633 0 10.6277V13.4894C0 14.1712 0.554222 14.7254 1.23556 14.7254H2.13244C2.36133 15.5748 2.69778 16.3877 3.13689 17.1508L2.50311 17.7846C2.26978 18.0179 2.14133 18.3286 2.14133 18.6583C2.14133 18.9886 2.26978 19.2988 2.50311 19.5326L4.52667 21.5561C4.99333 22.0232 5.80756 22.0237 6.27467 21.5561L6.90844 20.9223C7.67156 21.361 8.48444 21.6979 9.33378 21.9268V22.8237C9.33378 23.505 9.888 24.0592 10.5693 24.0592H13.4311C14.1124 24.0592 14.6667 23.505 14.6667 22.8237V21.9268C15.516 21.6979 16.3289 21.3614 17.092 20.9223L17.7258 21.5561C18.1933 22.0237 19.0067 22.0228 19.4738 21.5561L21.4973 19.5326C21.7307 19.2992 21.8591 18.9886 21.8591 18.6583C21.8591 18.3286 21.7307 18.0183 21.4973 17.7846L20.8636 17.1508C21.3022 16.3877 21.6391 15.5748 21.868 14.7254H22.7649C23.4462 14.7254 24.0004 14.1712 24.0004 13.4899V10.6277C24 9.94633 23.4458 9.39211 22.7644 9.39211ZM23.1111 13.4899C23.1111 13.681 22.9556 13.8366 22.7644 13.8366H21.168L21.088 14.1801C20.8564 15.1743 20.4662 16.1179 19.9267 16.985L19.74 17.2846L20.8684 18.413C21.004 18.5486 21.004 18.7686 20.8684 18.9037L18.8449 20.9272C18.7098 21.0623 18.4898 21.0632 18.3542 20.9272L17.2258 19.7988L16.9262 19.9854C16.0596 20.525 15.116 20.9157 14.1213 21.1468L13.7778 21.2268V22.8232C13.7778 23.0143 13.6222 23.1699 13.4311 23.1699H10.5689C10.3778 23.1699 10.2222 23.0143 10.2222 22.8232V21.2268L9.87867 21.1468C8.88444 20.9152 7.94089 20.525 7.07378 19.9854L6.77422 19.7988L5.64578 20.9272C5.50978 21.0632 5.28978 21.0623 5.15511 20.9272L3.13156 18.9037C2.996 18.7681 2.996 18.5481 3.13156 18.413L4.26 17.2846L4.07333 16.985C3.53378 16.1183 3.14311 15.1748 2.912 14.1801L2.832 13.8366H1.23556C1.04444 13.8366 0.888889 13.681 0.888889 13.4899V10.6277C0.888889 10.4366 1.04444 10.281 1.23556 10.281H2.832L2.912 9.93744C3.14356 8.94278 3.53378 7.99922 4.07333 7.13256L4.26 6.833L3.13156 5.70455C2.996 5.569 2.996 5.349 3.13156 5.21389L5.15511 3.19033C5.29022 3.05522 5.51022 3.05433 5.64578 3.19033L6.77422 4.31878L7.07378 4.13211C7.94044 3.59255 8.884 3.20189 9.87867 2.97078L10.2222 2.89078V1.29433C10.2222 1.10322 10.3778 0.947666 10.5689 0.947666H13.4307C13.6222 0.947666 13.7778 1.10322 13.7778 1.29433V2.89078L14.1213 2.97078C15.1156 3.20233 16.0591 3.59255 16.9262 4.13211L17.2258 4.31878L18.3542 3.19033C18.4902 3.05433 18.7102 3.05522 18.8449 3.19033L20.8684 5.21389C21.004 5.34944 21.004 5.56944 20.8684 5.70455L19.74 6.833L19.9267 7.13256C20.4662 7.99878 20.8569 8.94233 21.088 9.93744L21.168 10.281H22.7644C22.9556 10.281 23.1111 10.4366 23.1111 10.6277V13.4899Z" fill="#605C5C"/>
<path d="M12 7.61432C9.54932 7.61432 7.55554 9.6081 7.55554 12.0588C7.55554 14.5094 9.54932 16.5032 12 16.5032C14.4507 16.5032 16.4444 14.5094 16.4444 12.0588C16.4444 9.6081 14.4507 7.61432 12 7.61432ZM12 15.6143C10.0395 15.6143 8.44443 14.0192 8.44443 12.0588C8.44443 10.0983 10.0395 8.50321 12 8.50321C13.9604 8.50321 15.5555 10.0983 15.5555 12.0588C15.5555 14.0192 13.9604 15.6143 12 15.6143Z" fill="#605C5C"/>
</svg>
