<svg width="20" height="20" viewBox="0 0 20 20" fill="none" xmlns="http://www.w3.org/2000/svg">
<g clip-path="url(#clip0_23_1337)">
<path d="M17.5 1.66667H15V0H13.3333V1.66667H6.66667V0H5V1.66667H2.5C1.83696 1.66667 1.20107 1.93006 0.732233 2.3989C0.263392 2.86774 0 3.50363 0 4.16667L0 20H20V4.16667C20 3.50363 19.7366 2.86774 19.2678 2.3989C18.7989 1.93006 18.163 1.66667 17.5 1.66667ZM1.66667 4.16667C1.66667 3.94565 1.75446 3.73369 1.91074 3.57741C2.06702 3.42113 2.27899 3.33333 2.5 3.33333H17.5C17.721 3.33333 17.933 3.42113 18.0893 3.57741C18.2455 3.73369 18.3333 3.94565 18.3333 4.16667V6.66667H1.66667V4.16667ZM1.66667 18.3333V8.33333H18.3333V18.3333H1.66667Z" fill="#718096"/>
<path d="M14.1667 10.8334H12.5V12.5001H14.1667V10.8334Z" fill="#718096"/>
<path d="M10.8335 10.8334H9.16681V12.5001H10.8335V10.8334Z" fill="#718096"/>
<path d="M7.49985 10.8334H5.83319V12.5001H7.49985V10.8334Z" fill="#718096"/>
<path d="M14.1667 14.1668H12.5V15.8335H14.1667V14.1668Z" fill="#718096"/>
<path d="M10.8335 14.1668H9.16681V15.8335H10.8335V14.1668Z" fill="#718096"/>
<path d="M7.49985 14.1668H5.83319V15.8335H7.49985V14.1668Z" fill="#718096"/>
</g>
<defs>
<clipPath id="clip0_23_1337">
<rect width="20" height="20" fill="white"/>
</clipPath>
</defs>
</svg>
