<svg width="20" height="20" viewBox="0 0 20 20" fill="none" xmlns="http://www.w3.org/2000/svg">
<g clip-path="url(#clip0_23_1340)">
<path d="M20 13.3332V17.4998C20 18.1629 19.7366 18.7987 19.2678 19.2676C18.7989 19.7364 18.163 19.9998 17.5 19.9998H13.3333C12.1642 19.9986 11.016 19.69 10.0039 19.1049C8.99172 18.5199 8.15121 17.6789 7.56667 16.6665C8.19489 16.662 8.82098 16.5927 9.435 16.4598C9.90262 17.0445 10.4958 17.5165 11.1707 17.8408C11.8455 18.1651 12.5846 18.3334 13.3333 18.3332H17.5C17.721 18.3332 17.933 18.2454 18.0893 18.0891C18.2455 17.9328 18.3333 17.7208 18.3333 17.4998V13.3332C18.3331 12.5842 18.1643 11.8449 17.8395 11.17C17.5146 10.4952 17.042 9.90211 16.4567 9.43482C16.5907 8.82091 16.6611 8.19482 16.6667 7.56648C17.6791 8.15103 18.5201 8.99154 19.1051 10.0037C19.6902 11.0159 19.9988 12.1641 20 13.3332ZM14.9808 8.04232C15.0588 6.96868 14.9047 5.89085 14.529 4.88206C14.1534 3.87328 13.565 2.95717 12.8038 2.196C12.0426 1.43483 11.1265 0.846427 10.1178 0.47078C9.10896 0.0951339 8.03113 -0.0589555 6.9575 0.0189825C5.05493 0.236259 3.29744 1.14163 2.01598 2.5646C0.734522 3.98757 0.0175226 5.82996 0 7.74482L0 11.9448C0 14.0548 1.25583 14.9998 2.5 14.9998H7.25C9.16567 14.9833 11.0092 14.2668 12.4332 12.9853C13.8571 11.7037 14.7633 9.94567 14.9808 8.04232ZM11.625 3.37565C12.2166 3.96857 12.674 4.68165 12.9661 5.46664C13.2582 6.25163 13.3784 7.09021 13.3183 7.92565C13.1405 9.41205 12.4254 10.7822 11.3078 11.7781C10.1901 12.774 8.74699 13.3271 7.25 13.3332H2.5C1.72667 13.3332 1.66667 12.2707 1.66667 11.9448V7.74482C1.67361 6.24846 2.22721 4.80624 3.22326 3.68955C4.21932 2.57286 5.58916 1.85871 7.075 1.68148C7.21333 1.67148 7.35167 1.66648 7.49 1.66648C8.25772 1.66577 9.01807 1.81635 9.72757 2.10961C10.4371 2.40288 11.0818 2.83309 11.625 3.37565Z" fill="#718096"/>
</g>
<defs>
<clipPath id="clip0_23_1340">
<rect width="20" height="20" fill="white"/>
</clipPath>
</defs>
</svg>
