<svg width="20" height="20" viewBox="0 0 20 20" fill="none" xmlns="http://www.w3.org/2000/svg">
<g clip-path="url(#clip0_23_1336)">
<path d="M18.9775 6.43449C18.5867 5.98416 18.1038 5.62305 17.5613 5.37562C17.0189 5.12818 16.4296 5.00019 15.8333 5.00032H12.5092L12.7892 3.29949C12.8882 2.70054 12.7687 2.08593 12.4524 1.56777C12.1361 1.04961 11.644 0.662414 11.066 0.476813C10.488 0.291212 9.8625 0.31957 9.30365 0.556716C8.74479 0.793861 8.2898 1.22399 8.02167 1.76865L6.42667 5.00032H4.16667C3.062 5.00164 2.00296 5.44105 1.22185 6.22217C0.440735 7.00328 0.00132321 8.06232 0 9.16699L0 13.3337C0.00132321 14.4383 0.440735 15.4974 1.22185 16.2785C2.00296 17.0596 3.062 17.499 4.16667 17.5003H15.25C16.2529 17.4962 17.221 17.1322 17.9782 16.4746C18.7354 15.817 19.2313 14.9094 19.3758 13.917L19.9633 9.75032C20.0461 9.15926 20.0009 8.55733 19.8308 7.98526C19.6607 7.41319 19.3697 6.88434 18.9775 6.43449ZM1.66667 13.3337V9.16699C1.66667 8.50395 1.93006 7.86806 2.3989 7.39922C2.86774 6.93038 3.50363 6.66699 4.16667 6.66699H5.83333V15.8337H4.16667C3.50363 15.8337 2.86774 15.5703 2.3989 15.1014C1.93006 14.6326 1.66667 13.9967 1.66667 13.3337ZM18.3092 9.51615L17.7208 13.6828C17.6348 14.2778 17.3381 14.8222 16.8847 15.2169C16.4312 15.6116 15.8512 15.8305 15.25 15.8337H7.5V6.44532C7.57853 6.3769 7.64355 6.29436 7.69167 6.20199L9.51583 2.50615C9.58424 2.38276 9.68095 2.27736 9.79802 2.19862C9.91509 2.11988 10.0492 2.07004 10.1893 2.0532C10.3293 2.03636 10.4714 2.053 10.6038 2.10176C10.7362 2.15051 10.8551 2.22999 10.9508 2.33365C11.0327 2.42886 11.0926 2.54096 11.1261 2.66196C11.1597 2.78296 11.1661 2.90988 11.145 3.03365L10.705 5.70032C10.6857 5.81947 10.6925 5.94139 10.7249 6.05766C10.7574 6.17392 10.8147 6.28175 10.8929 6.37368C10.9711 6.46561 11.0684 6.53945 11.178 6.59009C11.2875 6.64074 11.4068 6.66697 11.5275 6.66699H15.8333C16.1912 6.66694 16.5448 6.74371 16.8705 6.89211C17.1961 7.04051 17.486 7.25708 17.7207 7.52718C17.9555 7.79729 18.1294 8.11463 18.231 8.45776C18.3325 8.8009 18.3591 9.16183 18.3092 9.51615Z" fill="#718096"/>
</g>
<defs>
<clipPath id="clip0_23_1336">
<rect width="20" height="20" fill="white"/>
</clipPath>
</defs>
</svg>
