<svg width="20" height="20" viewBox="0 0 20 20" fill="none" xmlns="http://www.w3.org/2000/svg">
<g clip-path="url(#clip0_23_1335)">
<path d="M19.2658 0.735022C18.967 0.432628 18.5953 0.212401 18.1866 0.0956188C17.7778 -0.0211636 17.3459 -0.0305539 16.9324 0.0683551L3.5991 2.87669C2.83125 2.98199 2.10805 3.29959 1.51094 3.7937C0.91383 4.28781 0.466531 4.93882 0.219416 5.67341C-0.0276987 6.408 -0.064815 7.19699 0.112247 7.95154C0.28931 8.70608 0.673518 9.3962 1.2216 9.94419L2.65327 11.375C2.73076 11.4525 2.79221 11.5445 2.83411 11.6457C2.876 11.7469 2.89752 11.8555 2.89744 11.965V14.605C2.89928 14.9762 2.98473 15.3422 3.14744 15.6759L3.14077 15.6817L3.16244 15.7034C3.40662 16.1943 3.80542 16.5913 4.29744 16.8334L4.3191 16.855L4.32494 16.8484C4.65857 17.0111 5.02458 17.0965 5.39577 17.0984H8.03577C8.25665 17.0982 8.46856 17.1857 8.62494 17.3417L10.0558 18.7725C10.4395 19.1605 10.8963 19.4688 11.3998 19.6794C11.9032 19.8901 12.4434 19.9991 12.9891 20C13.4439 19.9995 13.8956 19.9252 14.3266 19.78C15.0545 19.541 15.7011 19.1034 16.1935 18.5164C16.6859 17.9295 17.0044 17.2167 17.1133 16.4584L19.9258 3.09585C20.0298 2.67889 20.0237 2.24204 19.908 1.82816C19.7923 1.41428 19.571 1.03758 19.2658 0.735022ZM3.83327 10.1984L2.40077 8.76752C2.0672 8.44199 1.83341 8.02806 1.72684 7.57432C1.62027 7.12058 1.64534 6.64585 1.7991 6.20585C1.94818 5.75446 2.22377 5.35538 2.5931 5.05607C2.96243 4.75677 3.40995 4.56984 3.88244 4.51752L17.0833 1.73835L4.56244 14.2609V11.965C4.5637 11.637 4.49991 11.3119 4.37475 11.0087C4.24959 10.7054 4.06555 10.43 3.83327 10.1984ZM15.4758 16.1734C15.4118 16.6336 15.2208 17.067 14.9242 17.4247C14.6276 17.7825 14.2372 18.0505 13.7967 18.1986C13.3563 18.3468 12.8832 18.3693 12.4307 18.2636C11.9782 18.1578 11.5641 17.928 11.2349 17.6L9.8016 16.1667C9.57025 15.9341 9.29506 15.7496 8.99195 15.624C8.68885 15.4984 8.36386 15.4342 8.03577 15.435H5.73994L18.2624 2.91669L15.4758 16.1734Z" fill="#718096"/>
</g>
<defs>
<clipPath id="clip0_23_1335">
<rect width="20" height="20" fill="white"/>
</clipPath>
</defs>
</svg>
