<svg width="20" height="20" viewBox="0 0 20 20" fill="none" xmlns="http://www.w3.org/2000/svg">
<g clip-path="url(#clip0_23_1334)">
<path d="M15.8333 0.833389H4.16667C3.062 0.834712 2.00296 1.27412 1.22185 2.05524C0.440735 2.83635 0.00132321 3.89539 0 5.00006L0 15.0001C0.00132321 16.1047 0.440735 17.1638 1.22185 17.9449C2.00296 18.726 3.062 19.1654 4.16667 19.1667H15.8333C16.938 19.1654 17.997 18.726 18.7782 17.9449C19.5593 17.1638 19.9987 16.1047 20 15.0001V5.00006C19.9987 3.89539 19.5593 2.83635 18.7782 2.05524C17.997 1.27412 16.938 0.834712 15.8333 0.833389ZM4.16667 2.50006H15.8333C16.4964 2.50006 17.1323 2.76345 17.6011 3.23229C18.0699 3.70113 18.3333 4.33701 18.3333 5.00006V5.83339H1.66667V5.00006C1.66667 4.33701 1.93006 3.70113 2.3989 3.23229C2.86774 2.76345 3.50363 2.50006 4.16667 2.50006ZM15.8333 17.5001H4.16667C3.50363 17.5001 2.86774 17.2367 2.3989 16.7678C1.93006 16.299 1.66667 15.6631 1.66667 15.0001V7.50006H18.3333V15.0001C18.3333 15.6631 18.0699 16.299 17.6011 16.7678C17.1323 17.2367 16.4964 17.5001 15.8333 17.5001ZM15.8333 10.8334C15.8333 11.0544 15.7455 11.2664 15.5893 11.4226C15.433 11.5789 15.221 11.6667 15 11.6667H5C4.77899 11.6667 4.56702 11.5789 4.41074 11.4226C4.25446 11.2664 4.16667 11.0544 4.16667 10.8334C4.16667 10.6124 4.25446 10.4004 4.41074 10.2441C4.56702 10.0879 4.77899 10.0001 5 10.0001H15C15.221 10.0001 15.433 10.0879 15.5893 10.2441C15.7455 10.4004 15.8333 10.6124 15.8333 10.8334ZM12.5 14.1667C12.5 14.3877 12.4122 14.5997 12.2559 14.756C12.0996 14.9123 11.8877 15.0001 11.6667 15.0001H5C4.77899 15.0001 4.56702 14.9123 4.41074 14.756C4.25446 14.5997 4.16667 14.3877 4.16667 14.1667C4.16667 13.9457 4.25446 13.7337 4.41074 13.5775C4.56702 13.4212 4.77899 13.3334 5 13.3334H11.6667C11.8877 13.3334 12.0996 13.4212 12.2559 13.5775C12.4122 13.7337 12.5 13.9457 12.5 14.1667ZM2.5 4.16672C2.5 4.0019 2.54887 3.84079 2.64044 3.70375C2.73201 3.56671 2.86216 3.4599 3.01443 3.39682C3.1667 3.33375 3.33426 3.31725 3.49591 3.3494C3.65756 3.38156 3.80605 3.46092 3.92259 3.57747C4.03913 3.69401 4.1185 3.8425 4.15065 4.00415C4.18281 4.1658 4.16631 4.33335 4.10323 4.48563C4.04016 4.6379 3.93335 4.76805 3.79631 4.85961C3.65927 4.95118 3.49815 5.00006 3.33333 5.00006C3.11232 5.00006 2.90036 4.91226 2.74408 4.75598C2.5878 4.5997 2.5 4.38774 2.5 4.16672ZM5 4.16672C5 4.0019 5.04887 3.84079 5.14044 3.70375C5.23201 3.56671 5.36216 3.4599 5.51443 3.39682C5.6667 3.33375 5.83426 3.31725 5.99591 3.3494C6.15756 3.38156 6.30605 3.46092 6.42259 3.57747C6.53913 3.69401 6.6185 3.8425 6.65065 4.00415C6.68281 4.1658 6.66631 4.33335 6.60323 4.48563C6.54016 4.6379 6.43335 4.76805 6.29631 4.85961C6.15927 4.95118 5.99815 5.00006 5.83333 5.00006C5.61232 5.00006 5.40036 4.91226 5.24408 4.75598C5.0878 4.5997 5 4.38774 5 4.16672ZM7.5 4.16672C7.5 4.0019 7.54887 3.84079 7.64044 3.70375C7.73201 3.56671 7.86216 3.4599 8.01443 3.39682C8.1667 3.33375 8.33426 3.31725 8.49591 3.3494C8.65756 3.38156 8.80604 3.46092 8.92259 3.57747C9.03913 3.69401 9.1185 3.8425 9.15065 4.00415C9.18281 4.1658 9.16631 4.33335 9.10323 4.48563C9.04016 4.6379 8.93335 4.76805 8.79631 4.85961C8.65927 4.95118 8.49815 5.00006 8.33333 5.00006C8.11232 5.00006 7.90036 4.91226 7.74408 4.75598C7.5878 4.5997 7.5 4.38774 7.5 4.16672Z" fill="#718096"/>
</g>
<defs>
<clipPath id="clip0_23_1334">
<rect width="20" height="20" fill="white"/>
</clipPath>
</defs>
</svg>
