<svg width="20" height="20" viewBox="0 0 20 20" fill="none" xmlns="http://www.w3.org/2000/svg">
<g clip-path="url(#clip0_23_1339)">
<path d="M10 13.3335C9.11599 13.3335 8.26814 12.9823 7.64302 12.3572C7.0179 11.7321 6.66671 10.8842 6.66671 10.0002C6.66671 9.11611 7.0179 8.26827 7.64302 7.64315C8.26814 7.01802 9.11599 6.66683 10 6.66683C10.8841 6.66683 11.7319 7.01802 12.3571 7.64315C12.9822 8.26827 13.3334 9.11611 13.3334 10.0002C13.3334 10.8842 12.9822 11.7321 12.3571 12.3572C11.7319 12.9823 10.8841 13.3335 10 13.3335ZM10 8.3335C9.55802 8.3335 9.13409 8.5091 8.82153 8.82166C8.50897 9.13422 8.33338 9.55814 8.33338 10.0002C8.33338 10.4422 8.50897 10.8661 8.82153 11.1787C9.13409 11.4912 9.55802 11.6668 10 11.6668C10.4421 11.6668 10.866 11.4912 11.1786 11.1787C11.4911 10.8661 11.6667 10.4422 11.6667 10.0002C11.6667 9.55814 11.4911 9.13422 11.1786 8.82166C10.866 8.5091 10.4421 8.3335 10 8.3335ZM10 20.0002C9.09101 19.9992 8.20715 19.7015 7.48288 19.1521C6.75861 18.6028 6.23355 17.8319 5.98754 16.9568C5.1081 17.151 4.18963 17.0594 3.36593 16.6952C2.54222 16.331 1.85633 15.7133 1.40816 14.9321C0.959992 14.1509 0.772969 13.247 0.874336 12.3521C0.975703 11.4572 1.36016 10.618 1.97171 9.95683C-0.861624 7.031 1.97921 1.95683 6.00004 2.99933C6.2594 2.1403 6.78842 1.38758 7.50882 0.852566C8.22921 0.317552 9.10271 0.0286713 10 0.0286713C10.8974 0.0286713 11.7709 0.317552 12.4913 0.852566C13.2117 1.38758 13.7407 2.1403 14 2.99933C18.0834 1.986 20.8334 7.01017 18.0242 9.99267C20.8642 12.941 18.0334 17.861 14.0125 16.9568C13.7665 17.8319 13.2415 18.6028 12.5172 19.1521C11.7929 19.7015 10.9091 19.9992 10 20.0002ZM6.66671 15.0002C6.88772 15.0002 7.09969 15.088 7.25597 15.2442C7.41225 15.4005 7.50004 15.6125 7.50004 15.8335C7.50004 16.4965 7.76343 17.1324 8.23228 17.6013C8.70112 18.0701 9.337 18.3335 10 18.3335C10.6631 18.3335 11.299 18.0701 11.7678 17.6013C12.2367 17.1324 12.5 16.4965 12.5 15.8335C12.5 15.6867 12.5387 15.5425 12.6123 15.4154C12.6858 15.2884 12.7917 15.1831 12.919 15.1101C13.0464 15.0371 13.1908 14.999 13.3376 14.9998C13.4844 15.0005 13.6284 15.0401 13.755 15.1143C16.6434 16.5102 19.0884 12.4627 16.2684 10.7318C16.1382 10.6591 16.0299 10.5529 15.9545 10.4243C15.879 10.2957 15.8393 10.1493 15.8393 10.0002C15.8393 9.85107 15.879 9.70467 15.9545 9.57606C16.0299 9.44745 16.1382 9.34128 16.2684 9.2685C19.0292 7.59433 16.7034 3.25267 13.7525 4.89017C13.6257 4.964 13.4816 5.00302 13.3348 5.00326C13.188 5.00351 13.0437 4.96498 12.9166 4.89157C12.7895 4.81816 12.684 4.71248 12.6109 4.58521C12.5377 4.45795 12.4995 4.31362 12.5 4.16683C12.5 3.50379 12.2367 2.86791 11.7678 2.39907C11.299 1.93023 10.6631 1.66683 10 1.66683C9.337 1.66683 8.70112 1.93023 8.23228 2.39907C7.76343 2.86791 7.50004 3.50379 7.50004 4.16683C7.50033 4.31325 7.46204 4.45717 7.38902 4.58408C7.31599 4.71099 7.21082 4.81642 7.08409 4.88976C6.95736 4.96309 6.81354 5.00174 6.66712 5.00181C6.5207 5.00189 6.37685 4.96338 6.25004 4.89017C3.33338 3.25683 0.948376 7.56683 3.73171 9.22517C3.86182 9.29807 3.97014 9.40432 4.04554 9.533C4.12094 9.66167 4.16069 9.80811 4.16069 9.95725C4.16069 10.1064 4.12094 10.2528 4.04554 10.3815C3.97014 10.5102 3.86182 10.6164 3.73171 10.6893C0.94171 12.4502 3.30338 16.5002 6.24504 15.1143C6.37295 15.0395 6.5185 15.0001 6.66671 15.0002Z" fill="#718096"/>
</g>
<defs>
<clipPath id="clip0_23_1339">
<rect width="20" height="20" fill="white"/>
</clipPath>
</defs>
</svg>
